<?xml version="1.0" encoding="UTF-8" standalone="no"?>
<svg
   xmlns:dc="http://purl.org/dc/elements/1.1/"
   xmlns:cc="http://creativecommons.org/ns#"
   xmlns:rdf="http://www.w3.org/1999/02/22-rdf-syntax-ns#"
   xmlns:svg="http://www.w3.org/2000/svg"
   xmlns="http://www.w3.org/2000/svg"
   version="1.1"
   id="svg1947"
   xml:space="preserve"
   width="19.656"
   height="23.614401"
   viewBox="0 0 19.656 23.614401"><metadata
     id="metadata1953"><rdf:RDF><cc:Work
         rdf:about=""><dc:format>image/svg+xml</dc:format><dc:type
           rdf:resource="http://purl.org/dc/dcmitype/StillImage" /><dc:title></dc:title></cc:Work></rdf:RDF></metadata><defs
     id="defs1951"><clipPath
       clipPathUnits="userSpaceOnUse"
       id="clipPath1963"><path
         d="M 0,17.711 H 14.742 V 0 H 0 Z"
         id="path1961" /></clipPath></defs><g
     id="g1955"
     transform="matrix(1.3333333,0,0,-1.3333333,0,23.6144)"><g
       id="g1957"><g
         id="g1959"
         clip-path="url(#clipPath1963)"><g
           id="g1965"
           transform="translate(11.7426,15.4608)"><path
             d="m 0,0 c 0.836,-0.932 1.175,-1.99 1.175,-3.133 0,-3.578 -3.366,-7.982 -5.547,-11.825 C -7.251,-9.887 -12.184,-3.853 -8.744,0 -6.298,2.329 -2.445,2.329 0,0"
             style="fill:#009245;fill-opacity:1;fill-rule:nonzero;stroke:none"
             id="path1967" /></g><g
           id="g1969"
           transform="translate(7.9369,9.6102)"><path
             d="m 0,0 c 0.082,0.012 0.158,0.023 0.234,0.034 0.947,0.13 1.894,0.26 2.841,0.39 0.06,0.008 0.082,0.03 0.09,0.094 C 3.224,0.982 3.227,1.447 3.183,1.913 3.109,2.69 2.911,3.432 2.56,4.131 2.033,5.176 1.246,5.979 0.261,6.599 0.178,6.651 0.092,6.7 0,6.755 Z M -0.383,7.42 C -0.021,7.205 0.333,7.014 0.667,6.793 1.286,6.383 1.826,5.884 2.274,5.29 2.848,4.53 3.226,3.683 3.424,2.755 3.587,1.996 3.631,1.23 3.546,0.458 3.535,0.36 3.515,0.264 3.502,0.167 3.495,0.113 3.47,0.087 3.413,0.079 2.706,-0.016 1.999,-0.113 1.293,-0.21 0.787,-0.28 0.282,-0.351 -0.224,-0.421 c -0.05,-0.007 -0.1,-0.012 -0.159,-0.019 z"
             style="fill:#000000;fill-opacity:1;fill-rule:nonzero;stroke:none"
             id="path1971" /></g><g
           id="g1973"
           transform="translate(3.5776,8.0902)"><path
             d="m 0,0 c 0.074,-0.164 0.146,-0.309 0.206,-0.459 0.03,-0.075 0.069,-0.097 0.149,-0.097 1.976,0.002 3.952,0.002 5.927,0 0.071,0 0.119,0.018 0.166,0.071 0.367,0.411 0.737,0.82 1.106,1.23 C 7.567,0.76 7.577,0.779 7.596,0.808 5.06,0.538 2.54,0.27 0,0 M -0.567,0.329 C 2.478,0.652 5.51,0.974 8.556,1.298 8.54,1.271 8.533,1.253 8.521,1.241 7.881,0.529 7.24,-0.182 6.598,-0.89 6.57,-0.92 6.517,-0.938 6.476,-0.939 5.004,-0.941 3.532,-0.94 2.06,-0.94 c -0.656,0 -1.312,0.001 -1.969,-0.001 -0.066,-0.001 -0.1,0.015 -0.129,0.079 -0.161,0.368 -0.329,0.733 -0.494,1.099 -0.011,0.024 -0.019,0.05 -0.035,0.092"
             style="fill:#000000;fill-opacity:1;fill-rule:nonzero;stroke:none"
             id="path1975" /></g><g
           id="g1977"
           transform="translate(3.3344,9.513)"><path
             d="m 0,0 c 0.005,-0.002 0.017,-0.008 0.028,-0.009 0.223,-0.005 0.447,-0.017 0.669,-0.012 0.94,0.022 1.88,0.051 2.82,0.073 0.094,0.002 0.118,0.03 0.118,0.121 C 3.632,1.799 3.633,3.425 3.633,5.05 3.633,5.085 3.629,5.12 3.626,5.175 2.409,3.438 1.206,1.721 0,0 M 4.014,6.416 V -0.308 C 3.878,-0.315 3.748,-0.325 3.617,-0.328 2.427,-0.352 1.237,-0.376 0.046,-0.395 c -0.144,-0.001 -0.291,0.018 -0.431,0.049 -0.169,0.038 -0.219,0.202 -0.121,0.34 0.769,1.082 1.541,2.163 2.305,3.249 0.723,1.028 1.437,2.063 2.155,3.094 0.015,0.021 0.032,0.041 0.06,0.079"
             style="fill:#000000;fill-opacity:1;fill-rule:nonzero;stroke:none"
             id="path1979" /></g></g></g></g></svg>
