<svg xmlns="http://www.w3.org/2000/svg" viewBox="0 0 19.66 23.61"><defs><style>.cls-1{fill:#0b8a38;}.cls-2{fill:#fff;}</style></defs><title>simbolo-goccia-arte-outdoor</title><g id="svg653"><g id="g671"><path id="path673" class="cls-1" d="M15.66,3a6,6,0,0,1,1.56,4.18c0,4.77-4.48,10.64-7.39,15.76C6,16.18-.59,8.14,4,3A8.45,8.45,0,0,1,15.66,3"/></g></g><g id="LEGENDA"><path class="cls-2" d="M15.47,11.41H4.17a.44.44,0,0,0,0,.88h11.3a.44.44,0,0,0,0-.88Z"/><path class="cls-2" d="M5.13,5.6V10H4.88a.4.4,0,0,0-.37.43v.28H15.13V10.4a.4.4,0,0,0-.37-.43h-.24V5.6h-2V10H10.81V5.6h-2V10H7.11V5.6Zm0,0"/><path class="cls-2" d="M4.55,4.87H15.1a.4.4,0,0,0,.37-.43.42.42,0,0,0-.22-.39L10,.9a.34.34,0,0,0-.34,0L4.38,4.05a.47.47,0,0,0-.2.49.38.38,0,0,0,.37.33Zm0,0"/></g></svg>