<?xml version="1.0" encoding="UTF-8" standalone="no"?>
<svg
   xmlns:dc="http://purl.org/dc/elements/1.1/"
   xmlns:cc="http://creativecommons.org/ns#"
   xmlns:rdf="http://www.w3.org/1999/02/22-rdf-syntax-ns#"
   xmlns:svg="http://www.w3.org/2000/svg"
   xmlns="http://www.w3.org/2000/svg"
   version="1.1"
   id="svg259"
   xml:space="preserve"
   width="19.656"
   height="23.614401"
   viewBox="0 0 19.656 23.614401"><metadata
     id="metadata265"><rdf:RDF><cc:Work
         rdf:about=""><dc:format>image/svg+xml</dc:format><dc:type
           rdf:resource="http://purl.org/dc/dcmitype/StillImage" /><dc:title></dc:title></cc:Work></rdf:RDF></metadata><defs
     id="defs263"><clipPath
       clipPathUnits="userSpaceOnUse"
       id="clipPath275"><path
         d="M 0,17.711 H 14.742 V 0 H 0 Z"
         id="path273" /></clipPath></defs><g
     id="g267"
     transform="matrix(1.3333333,0,0,-1.3333333,0,23.6144)"><g
       id="g269"><g
         id="g271"
         clip-path="url(#clipPath275)"><g
           id="g277"
           transform="translate(11.7426,15.4608)"><path
             d="m 0,0 c 0.836,-0.932 1.175,-1.99 1.175,-3.133 0,-3.578 -3.366,-7.982 -5.547,-11.825 C -7.251,-9.887 -12.184,-3.853 -8.744,0 -6.298,2.329 -2.445,2.329 0,0"
             style="fill:#fbb03b;fill-opacity:1;fill-rule:nonzero;stroke:none"
             id="path279" /></g><g
           id="g281"
           transform="translate(10.7846,9.6297)"><path
             d="M 0,0 V -1.914 H -0.825 V 0.387 Z"
             style="fill:#42210b;fill-opacity:1;fill-rule:nonzero;stroke:none"
             id="path283" /></g><g
           id="g285"
           transform="translate(6.6552,12.8651)"><path
             d="M 0,0 C 0,0.405 0.329,0.733 0.734,0.733 1.138,0.733 1.467,0.405 1.467,0 1.467,-0.404 1.138,-0.733 0.734,-0.733 0.329,-0.733 0,-0.404 0,0 m 0.734,-0.396 c 0.219,0 0.395,0.177 0.395,0.396 0,0.219 -0.176,0.396 -0.395,0.396 -0.22,0 -0.397,-0.177 -0.397,-0.396 0,-0.219 0.177,-0.396 0.397,-0.396"
             style="fill:#42210b;fill-opacity:1;fill-rule:nonzero;stroke:none"
             id="path287" /></g><g
           id="g289"
           transform="translate(7.3891,13.5985)"><path
             d="m 0,0 c -0.405,0 -0.734,-0.329 -0.734,-0.733 0,-0.404 0.329,-0.734 0.734,-0.734 0.404,0 0.733,0.33 0.733,0.734 C 0.733,-0.329 0.404,0 0,0 m 0,-3.818 c -0.405,0 -0.734,-0.236 -0.734,-0.539 v -1.526 h -1.5 v 3.228 l 1.038,0.523 c 0.057,0.026 0.092,0.084 0.092,0.152 v 1.727 L 0,1.112 1.103,-0.253 V -1.98 c 0,-0.068 0.035,-0.126 0.094,-0.152 L 2.232,-2.655 V -5.883 H 0.733 v 1.526 c 0,0.303 -0.321,0.539 -0.733,0.539"
             style="fill:#42210b;fill-opacity:1;fill-rule:nonzero;stroke:none"
             id="path291" /></g><g
           id="g293"
           transform="translate(4.8261,10.017)"><path
             d="m 0,0 v -2.301 h -0.834 v 1.914 z"
             style="fill:#42210b;fill-opacity:1;fill-rule:nonzero;stroke:none"
             id="path295" /></g><g
           id="g297"
           transform="translate(3.9921,7.7157)"><path
             d="M 0,0 H 0.834 V 2.301 L 0,1.914 Z m -0.237,2.174 1.071,0.489 v 0.674 c 0,0.059 0.034,0.118 0.093,0.144 l 1.037,0.522 v 1.686 c 0,0.034 0.008,0.076 0.033,0.101 l 1.232,1.534 v 1.02 H 2.898 c -0.091,0 -0.167,0.076 -0.167,0.168 0,0.093 0.076,0.169 0.167,0.169 h 0.331 v 0.371 c 0,0.093 0.075,0.169 0.168,0.169 0.092,0 0.167,-0.076 0.167,-0.169 V 8.681 H 3.903 C 3.996,8.681 4.071,8.605 4.071,8.512 4.071,8.42 3.996,8.344 3.903,8.344 H 3.564 V 7.324 L 4.804,5.79 C 4.82,5.765 4.837,5.723 4.837,5.689 V 4.003 L 5.874,3.481 C 5.933,3.455 5.967,3.396 5.967,3.337 V 2.663 L 7.028,2.174 C 7.088,2.141 7.13,2.082 7.13,2.022 V 0 H 7.055 c 0.083,0 0.158,-0.077 0.158,-0.168 0,-0.094 -0.075,-0.169 -0.158,-0.169 h -7.342 c -0.093,0 -0.169,0.075 -0.169,0.169 0,0.091 0.076,0.168 0.169,0.168 h -0.042 v 2.022 c 0,0.06 0.034,0.119 0.092,0.152 m 2.9,-0.649 c 0,0.304 0.329,0.54 0.734,0.54 0.412,0 0.733,-0.236 0.733,-0.54 V 0 H 5.629 V 3.228 L 4.594,3.75 C 4.535,3.776 4.5,3.834 4.5,3.902 V 5.63 L 3.397,6.995 2.292,5.63 V 3.902 C 2.292,3.834 2.258,3.776 2.201,3.75 L 1.163,3.228 V 0 h 1.5 z m 1.129,0 C 3.792,1.626 3.624,1.737 3.397,1.737 3.168,1.737 3,1.626 3,1.525 V 0 H 3.792 Z M 6.792,0 V 1.914 L 5.967,2.301 V 0 Z"
             style="fill:#42210b;fill-opacity:1;fill-rule:nonzero;stroke:none"
             id="path299" /></g></g></g></g></svg>
