<?xml version="1.0" encoding="UTF-8" standalone="no"?>
<svg
   xmlns:dc="http://purl.org/dc/elements/1.1/"
   xmlns:cc="http://creativecommons.org/ns#"
   xmlns:rdf="http://www.w3.org/1999/02/22-rdf-syntax-ns#"
   xmlns:svg="http://www.w3.org/2000/svg"
   xmlns="http://www.w3.org/2000/svg"
   version="1.1"
   id="svg793"
   xml:space="preserve"
   width="19.656"
   height="23.614401"
   viewBox="0 0 19.656 23.614401"><metadata
     id="metadata799"><rdf:RDF><cc:Work
         rdf:about=""><dc:format>image/svg+xml</dc:format><dc:type
           rdf:resource="http://purl.org/dc/dcmitype/StillImage" /><dc:title></dc:title></cc:Work></rdf:RDF></metadata><defs
     id="defs797"><clipPath
       clipPathUnits="userSpaceOnUse"
       id="clipPath809"><path
         d="M 0,17.711 H 14.742 V 0 H 0 Z"
         id="path807" /></clipPath></defs><g
     id="g801"
     transform="matrix(1.3333333,0,0,-1.3333333,0,23.6144)"><g
       id="g803"><g
         id="g805"
         clip-path="url(#clipPath809)"><g
           id="g811"
           transform="translate(11.7426,15.7186)"><path
             d="m 0,0 c 0.836,-0.931 1.175,-1.99 1.175,-3.133 0,-3.578 -3.366,-7.982 -5.547,-11.824 C -7.251,-9.887 -12.184,-3.853 -8.744,0 -6.298,2.329 -2.445,2.329 0,0"
             style="fill:#fbb03b;fill-opacity:1;fill-rule:nonzero;stroke:none"
             id="path813" /></g><g
           id="g815"
           transform="translate(10.3237,14.4833)"><path
             d="m 0,0 v -2.853 l 0.063,-0.08 0.064,-0.041 0.062,-0.023 h 0.237 l 0.069,0.029 0.057,0.063 0.052,0.064 v 2.836 L 0.546,0.063 0.5,0.121 0.426,0.156 H 0.201 L 0.144,0.132 0.08,0.092 Z"
             style="fill:#ffffff;fill-opacity:1;fill-rule:nonzero;stroke:none"
             id="path817" /></g><g
           id="g819"
           transform="translate(3.4491,15.6683)"><path
             d="M 0,0 3.966,1.022 7.932,-0.053 V -0.334 L 3.966,0.723 0,-0.334 Z"
             style="fill:#ffffff;fill-opacity:1;fill-rule:nonzero;stroke:none"
             id="path821" /></g><g
           id="g823"
           transform="translate(4.2602,15.3509)"><path
             d="M 0,0 H 0.917 L 3.155,0.564 5.341,-0.017 H 6.222 L 3.155,0.846 Z"
             style="fill:#ffffff;fill-opacity:1;fill-rule:nonzero;stroke:none"
             id="path825" /></g><g
           id="g827"
           transform="translate(3.4491,14.9808)"><path
             d="M 0,0 H 7.932"
             style="fill:none;stroke:#ffffff;stroke-width:0.283;stroke-linecap:butt;stroke-linejoin:miter;stroke-miterlimit:4;stroke-dasharray:none;stroke-opacity:1"
             id="path829" /></g><g
           id="g831"
           transform="translate(3.414,11.1376)"><path
             d="M 0,0 H 7.915"
             style="fill:#ffffff;fill-opacity:1;fill-rule:nonzero;stroke:#ffffff;stroke-width:0.283;stroke-linecap:butt;stroke-linejoin:miter;stroke-miterlimit:4;stroke-dasharray:none;stroke-opacity:1"
             id="path833" /></g><g
           id="g835"
           transform="translate(2.9911,10.6444)"><path
             d="M 0,0 H 8.76"
             style="fill:#ffffff;fill-opacity:1;fill-rule:nonzero;stroke:#ffffff;stroke-width:0.283;stroke-linecap:butt;stroke-linejoin:miter;stroke-miterlimit:4;stroke-dasharray:none;stroke-opacity:1"
             id="path837" /></g><g
           id="g839"
           transform="translate(2.5322,10.1332)"><path
             d="M 0,0 H 9.677"
             style="fill:#ffffff;fill-opacity:1;fill-rule:nonzero;stroke:#ffffff;stroke-width:0.283;stroke-linecap:butt;stroke-linejoin:miter;stroke-miterlimit:4;stroke-dasharray:none;stroke-opacity:1"
             id="path841" /></g><g
           id="g843"
           transform="translate(3.8876,14.6732)"><path
             d="m 0,0 v -3.003 l 0.063,-0.074 0.098,-0.063 0.264,-0.006 0.052,0.035 0.063,0.062 0.046,0.07 v 2.974 H 0.362 L 0.351,-2.888 0.333,-2.916 0.299,-2.934 0.259,-2.916 0.23,-2.888 v 2.883 z"
             style="fill:#ffffff;fill-opacity:1;fill-rule:nonzero;stroke:none"
             id="path845" /></g><g
           id="g847"
           transform="translate(5.1933,14.6732)"><path
             d="m 0,0 v -3.146 h 0.195 v 1.713 L 0.379,-3.135 H 0.604 L 0.609,0 H 0.426 V -1.168 L 0.27,0 Z"
             style="fill:#ffffff;fill-opacity:1;fill-rule:nonzero;stroke:none"
             id="path849" /></g><g
           id="g851"
           transform="translate(6.5273,14.6732)"><path
             d="m 0,0 v -3.164 h 0.466 v 0.19 H 0.259 v 1.415 h 0.207 v 0.19 H 0.259 v 1.174 H 0.506 V 0 Z"
             style="fill:#ffffff;fill-opacity:1;fill-rule:nonzero;stroke:none"
             id="path853" /></g><g
           id="g855"
           transform="translate(8.081,13.7528)"><path
             d="M 0,0 H 0.201 V 0.8 L 0.155,0.869 0.068,0.926 0.034,0.932 H -0.19 L -0.259,0.897 -0.293,0.851 -0.34,0.73 v -0.902 l 0.311,-1.041 V -1.95 l -0.04,-0.046 H -0.116 L -0.15,-1.95 v 0.748 h -0.219 v -0.909 c 0,0 0.064,-0.052 0.076,-0.069 0.01,-0.017 0.097,-0.046 0.097,-0.046 l 0.051,-0.011 h 0.196 l 0.092,0.074 0.058,0.058 v 0.938 l -0.34,1.092 v 0.754 l 0.035,0.023 0.04,0.017 0.068,-0.011 z"
             style="fill:#ffffff;fill-opacity:1;fill-rule:nonzero;stroke:none"
             id="path857" /></g><g
           id="g859"
           transform="translate(9.3569,13.7704)"><path
             d="M 0,0 H 0.214 V 0.776 L 0.161,0.845 0.081,0.892 -0.022,0.915 H -0.109 L -0.172,0.892 -0.275,0.851 -0.356,0.776 -0.396,0.719 v -2.802 l 0.045,-0.103 0.07,-0.058 0.097,-0.046 H 0 l 0.075,0.029 0.074,0.075 0.065,0.081 v 0.879 h -0.219 v -0.81 l -0.041,-0.057 -0.052,-0.018 -0.046,0.04 -0.011,0.04 v 2.669 l 0.029,0.047 0.04,0.016 0.064,-0.028 0.025,-0.046 z"
             style="fill:#ffffff;fill-opacity:1;fill-rule:nonzero;stroke:none"
             id="path861" /></g><g
           id="g863"
           transform="translate(10.6244,14.3802)"><path
             d="M 0,0 V -2.704"
             style="fill:none;stroke:#fbb03b;stroke-width:0.142;stroke-linecap:butt;stroke-linejoin:miter;stroke-miterlimit:4;stroke-dasharray:none;stroke-opacity:1"
             id="path865" /></g></g></g></g></svg>
