<?xml version="1.0" encoding="UTF-8" standalone="no"?>
<svg
   xmlns:dc="http://purl.org/dc/elements/1.1/"
   xmlns:cc="http://creativecommons.org/ns#"
   xmlns:rdf="http://www.w3.org/1999/02/22-rdf-syntax-ns#"
   xmlns:svg="http://www.w3.org/2000/svg"
   xmlns="http://www.w3.org/2000/svg"
   version="1.1"
   id="svg135"
   xml:space="preserve"
   width="19.656"
   height="23.614401"
   viewBox="0 0 19.656 23.614401"><metadata
     id="metadata141"><rdf:RDF><cc:Work
         rdf:about=""><dc:format>image/svg+xml</dc:format><dc:type
           rdf:resource="http://purl.org/dc/dcmitype/StillImage" /><dc:title></dc:title></cc:Work></rdf:RDF></metadata><defs
     id="defs139"><clipPath
       clipPathUnits="userSpaceOnUse"
       id="clipPath151"><path
         d="M 0,17.711 H 14.742 V 0 H 0 Z"
         id="path149" /></clipPath><clipPath
       clipPathUnits="userSpaceOnUse"
       id="clipPath165"><path
         d="M -7.14062,7.79541 H 7.14062 V -7.79475 H -7.14062 Z"
         id="path163" /></clipPath></defs><g
     id="g143"
     transform="matrix(1.3333333,0,0,-1.3333333,0,23.6144)"><g
       id="g145"><g
         id="g147"
         clip-path="url(#clipPath151)"><g
           id="g153"
           transform="translate(11.7426,15.4608)"><path
             d="m 0,0 c 0.836,-0.932 1.175,-1.99 1.175,-3.133 0,-3.578 -3.366,-7.982 -5.547,-11.825 C -7.251,-9.887 -12.184,-3.853 -8.744,0 -6.298,2.329 -2.445,2.329 0,0"
             style="fill:#fbb03b;fill-opacity:1;fill-rule:nonzero;stroke:none"
             id="path155" /></g><g
           id="g157"
           transform="matrix(0.5554482,0,0,-0.5554482,7.3753347,12.245387)"><g
             id="g159"><g
               id="g161"
               clip-path="url(#clipPath165)"><g
                 id="g167"
                 transform="translate(-2.4521,-5.6636)"><path
                   d="M 0,0 V -1.095 C 0.34,-1.421 0.625,-1.417 1.077,-1.291 1.549,-1.161 1.839,-1.16 2.199,-1.535 1.354,-1.021 0.834,-2.489 0,-2.047 v -0.084 h -0.208 v 2.187"
                   style="fill:#e20613;fill-opacity:1;fill-rule:nonzero;stroke:none"
                   id="path169" /></g><g
                 id="g171"
                 transform="translate(2.0732,-4.1099)"><path
                   d="M 0,0 V -1.439 C 0,-1.633 -0.156,-1.79 -0.35,-1.79 h -0.546 c -0.194,0 -0.351,0.157 -0.351,0.351 v 0.434 c 0,0.113 -0.092,0.204 -0.205,0.204 h -0.33 c -0.114,0 -0.206,-0.091 -0.206,-0.204 v -0.434 c 0,-0.194 -0.157,-0.351 -0.35,-0.351 h -0.548 c -0.193,0 -0.35,0.157 -0.35,0.351 v 0.434 c 0,0.113 -0.091,0.204 -0.204,0.204 h -0.334 c -0.113,0 -0.205,-0.089 -0.205,-0.201 L -3.986,-1.445 C -3.988,-1.637 -4.144,-1.79 -4.336,-1.79 h -0.551 c -0.193,0 -0.349,0.157 -0.349,0.351 v 0.434 c 0,0.113 -0.093,0.204 -0.206,0.204 h -0.331 c -0.114,0 -0.205,-0.091 -0.205,-0.204 v -0.434 c 0,-0.194 -0.158,-0.351 -0.35,-0.351 h -0.548 c -0.193,0 -0.35,0.157 -0.35,0.351 v 0.434 c 0,0.113 -0.092,0.204 -0.205,0.204 h -0.332 c -0.114,0 -0.204,-0.091 -0.204,-0.204 v -0.434 c 0,-0.194 -0.156,-0.351 -0.349,-0.351 h -0.548 c -0.194,0 -0.35,0.157 -0.35,0.351 V 0 l 0.735,0.98 h 0.004 v 10.925 h 7.736 V 0.98 h 0.004 z"
                   style="fill:#67300f;fill-opacity:1;fill-rule:nonzero;stroke:none"
                   id="path173" /></g><g
                 id="g175"
                 transform="translate(7.125,-0.895)"><path
                   d="M 0,0 C 0,-0.093 -0.038,-0.183 -0.104,-0.247 -0.171,-0.313 -0.26,-0.35 -0.354,-0.349 l -0.547,0.005 c -0.192,0.002 -0.345,0.158 -0.345,0.351 v 0.425 c 0,0.114 -0.093,0.206 -0.206,0.206 h -0.331 c -0.114,0 -0.206,-0.092 -0.206,-0.206 v -0.435 c 0,-0.193 -0.157,-0.35 -0.351,-0.35 h -0.546 c -0.193,0 -0.35,0.157 -0.35,0.35 v 0.435 c 0,0.114 -0.091,0.206 -0.205,0.206 h -0.33 c -0.114,0 -0.206,-0.092 -0.206,-0.206 v -0.435 c 0,-0.193 -0.157,-0.35 -0.35,-0.35 h -0.547 c -0.193,0 -0.351,0.157 -0.351,0.35 v 8.692 h 5.241 z"
                   style="fill:#67300f;fill-opacity:1;fill-rule:nonzero;stroke:none"
                   id="path177" /></g><g
                 id="g179"
                 transform="translate(-1.3779,5.1382)"><path
                   d="M 0,0 V 2.657 H -2.313 V 0 c 0,0 -0.054,-0.802 1.157,-1.298 C 0.054,-0.802 0,0 0,0"
                   style="fill:#ffdd00;fill-opacity:1;fill-rule:nonzero;stroke:none"
                   id="path181" /></g><g
                 id="g183"
                 transform="translate(-3.7236,-1.2944)"><path
                   d="M 0,0 V 1.497 H -1.303 V 0 c 0,0 -0.03,-0.451 0.652,-0.731 C 0.031,-0.451 0,0 0,0"
                   style="fill:#ffdd00;fill-opacity:1;fill-rule:nonzero;stroke:none"
                   id="path185" /></g><g
                 id="g187"
                 transform="translate(-0.0293,-1.2944)"><path
                   d="M 0,0 V 1.497 H -1.304 V 0 c 0,0 -0.03,-0.451 0.653,-0.731 C 0.03,-0.451 0,0 0,0"
                   style="fill:#ffdd00;fill-opacity:1;fill-rule:nonzero;stroke:none"
                   id="path189" /></g><g
                 id="g191"
                 transform="translate(5.25,2.3853)"><path
                   d="M 0,0 V 1.498 H -1.304 V 0 c 0,0 -0.03,-0.451 0.653,-0.731 C 0.031,-0.451 0,0 0,0"
                   style="fill:#ffdd00;fill-opacity:1;fill-rule:nonzero;stroke:none"
                   id="path193" /></g></g></g></g></g></g></g></svg>
