<svg id="svg399" xmlns="http://www.w3.org/2000/svg" xmlns:xlink="http://www.w3.org/1999/xlink" viewBox="0 0 19.66 23.61"><defs><style>.cls-1{fill:none;}.cls-2{clip-path:url(#clip-path);}.cls-3{fill:#fbb03b;}.cls-4{fill:#00b7ff;}</style><clipPath id="clip-path"><rect class="cls-1" width="19.66" height="23.61"/></clipPath></defs><title>simbolo-goccia-arancio-museo-generico</title><g class="cls-2"><g id="g411"><g id="g417"><path id="path419" class="cls-3" d="M15.66,3a6,6,0,0,1,1.56,4.18c0,4.77-4.48,10.64-7.39,15.76C6,16.18-.59,8.14,4,3A8.45,8.45,0,0,1,15.66,3"/></g><g id="g421"><path id="path423" class="cls-4" d="M15.14,11.14H4.52a.42.42,0,0,0,0,.83H15.14a.42.42,0,0,0,0-.83"/></g><g id="g425"><path id="path427" class="cls-4" d="M5.41,5.68V9.79H5.19a.38.38,0,0,0-.36.4v.27h10v-.27a.38.38,0,0,0-.35-.4h-.23V5.68H12.38V9.79H10.76V5.68H8.9V9.79H7.28V5.68Z"/></g><g id="g429"><path id="path431" class="cls-4" d="M4.87,5h9.92a.42.42,0,0,0,.14-.78L10,1.26a.31.31,0,0,0-.32,0l-5,3a.41.41,0,0,0-.18.45A.37.37,0,0,0,4.87,5"/></g></g></g></svg>