<svg id="svg653" xmlns="http://www.w3.org/2000/svg" xmlns:xlink="http://www.w3.org/1999/xlink" viewBox="0 0 19.66 23.61"><defs><style>.cls-1{fill:none;}.cls-2{fill:#fbb03b;}.cls-3{clip-path:url(#clip-path);}.cls-4{fill:#f5d423;stroke-miterlimit:9.92;}.cls-4,.cls-6,.cls-7,.cls-8{stroke:#422918;stroke-width:0.31px;}.cls-5,.cls-8{fill:#fff;}.cls-6{fill:#d29b0a;}.cls-6,.cls-7,.cls-8{stroke-miterlimit:3.97;}.cls-7{fill:#1d1d1b;}</style><clipPath id="clip-path"><rect class="cls-1" x="2.67" y="0.9" width="14.88" height="16.05"/></clipPath></defs><title>simbolo-goccia-arancio-santuario-5</title><g id="g661"><g id="g663"><g id="g665"><g id="g671"><path id="path673" class="cls-2" d="M15.66,3a6,6,0,0,1,1.56,4.18c0,4.77-4.48,10.64-7.39,15.76C6,16.18-.59,8.14,4,3A8.45,8.45,0,0,1,15.66,3"/></g><g id="g675"><g id="g677"><g class="cls-3"><g id="g679"><g id="g685"><path id="path687" class="cls-4" d="M4.31,8.62l5.5-4.43,5.56,4.39"/></g><g id="g689"><path id="path691" class="cls-4" d="M5.5,7.61v7.2h8.68V7.61"/></g><g id="g777"><path id="path779" class="cls-5" d="M9.65,10.42l-.05-.13v-.22L9.7,10h.43l.06.13v.27H9.65Z"/></g><path id="path781" class="cls-6" d="M11.3,2.71H8.52V1.92H11.3Z"/><path id="path783" class="cls-6" d="M10.28,4.56H9.5V1.06h.78Z"/><g id="g785"><path id="path787" class="cls-7" d="M8.68,2.31H11"/></g><g id="g789"><path id="path791" class="cls-8" d="M9.89,1.42V4.11"/></g></g></g></g></g></g></g></g></svg>