<svg xmlns="http://www.w3.org/2000/svg" viewBox="0 0 19.66 23.61"><defs><style>.cls-1{fill:#fbb03b;}.cls-2{fill:#196633;}.cls-3{fill:#fbe91c;}</style></defs><title>simbolo-goccia-arancio-sito-naturalistico-importante</title><g id="svg653"><g id="g671"><path id="path673" class="cls-1" d="M15.66,3a6,6,0,0,1,1.56,4.18c0,4.77-4.48,10.64-7.39,15.76C6,16.18-.59,8.14,4,3A8.45,8.45,0,0,1,15.66,3"/></g></g><g id="LEGENDA"><g id="New_Symbol_60" data-name="New Symbol 60"><polygon class="cls-2" points="9.83 0.99 12.67 5.24 16.91 8.08 12.67 10.92 9.83 15.17 6.99 10.92 2.74 8.08 6.99 5.24 9.83 0.99"/><path class="cls-3" d="M12.38,8.08A2.56,2.56,0,1,1,9.83,5.53,2.55,2.55,0,0,1,12.38,8.08Z"/></g></g></svg>