<?xml version="1.0" encoding="UTF-8" standalone="no"?>
<svg
   xmlns:dc="http://purl.org/dc/elements/1.1/"
   xmlns:cc="http://creativecommons.org/ns#"
   xmlns:rdf="http://www.w3.org/1999/02/22-rdf-syntax-ns#"
   xmlns:svg="http://www.w3.org/2000/svg"
   xmlns="http://www.w3.org/2000/svg"
   version="1.1"
   id="svg1401"
   xml:space="preserve"
   width="19.656"
   height="23.614401"
   viewBox="0 0 19.656 23.614401"><metadata
     id="metadata1407"><rdf:RDF><cc:Work
         rdf:about=""><dc:format>image/svg+xml</dc:format><dc:type
           rdf:resource="http://purl.org/dc/dcmitype/StillImage" /><dc:title></dc:title></cc:Work></rdf:RDF></metadata><defs
     id="defs1405"><clipPath
       clipPathUnits="userSpaceOnUse"
       id="clipPath1417"><path
         d="M 0,17.711 H 14.742 V 0 H 0 Z"
         id="path1415" /></clipPath><clipPath
       clipPathUnits="userSpaceOnUse"
       id="clipPath1429"><path
         d="M 2.53578,16.3566 H 11.69 V 6.35674 H 2.53578 Z"
         id="path1427" /></clipPath></defs><g
     id="g1409"
     transform="matrix(1.3333333,0,0,-1.3333333,0,23.6144)"><g
       id="g1411"><g
         id="g1413"
         clip-path="url(#clipPath1417)"><g
           id="g1419"
           transform="translate(11.7426,15.4608)"><path
             d="m 0,0 c 0.836,-0.932 1.175,-1.99 1.175,-3.133 0,-3.578 -3.366,-7.982 -5.547,-11.825 C -7.251,-9.887 -12.184,-3.853 -8.744,0 -6.298,2.329 -2.445,2.329 0,0"
             style="fill:#009245;fill-opacity:1;fill-rule:nonzero;stroke:none"
             id="path1421" /></g><g
           id="g1423"><g
             id="g1425" /><g
             id="g1453"><g
               clip-path="url(#clipPath1429)"
               id="g1451"><g
                 transform="translate(11.2572,14.1258)"
                 id="g1433"><path
                   d="m 0,0 c -0.087,-0.063 -0.175,-0.104 -0.303,-0.104 -0.215,0 -0.326,0.136 -0.453,0.295 -0.128,0.143 -0.295,0.247 -0.431,0.391 -0.094,0.095 -0.167,0.167 -0.198,0.27 -0.024,0.056 -0.024,0.127 -0.009,0.215 0.057,0.263 0.351,0.502 0.598,0.597 L -0.812,1.648 C -0.541,1.776 -0.135,1.68 0.072,1.489 0.176,1.394 0.287,1.218 0.351,1.107 0.438,0.932 0.454,0.741 0.406,0.542 0.374,0.398 0.263,0.255 0.159,0.144 0.111,0.088 0.056,0.04 0,0"
                   style="fill:#010000;fill-opacity:1;fill-rule:nonzero;stroke:none"
                   id="path1431" /></g><g
                 transform="translate(8.1445,9.5477)"
                 id="g1437"><path
                   d="M 0,0 C 0.111,0.016 0.35,0.072 0.311,0.231 0.278,0.375 0,0.327 -0.112,0.366 L -0.135,0.358 C -0.279,0.406 -0.438,0.438 -0.605,0.43 -0.836,0.144 -0.191,-0.032 0,0 M -0.605,5.645 C -0.637,5.598 -0.685,5.55 -0.749,5.518 -0.948,5.415 -1.123,5.311 -1.314,5.175 -1.473,5.056 -1.608,5.08 -1.792,5.064 -2.142,5.048 -2.381,4.634 -2.476,4.332 -2.532,4.156 -2.636,3.989 -2.659,3.806 -2.715,3.487 -2.747,3.153 -2.723,2.834 -2.707,2.556 -2.588,2.341 -2.476,2.086 -2.333,1.76 -2.006,1.465 -1.68,1.314 -1.489,1.227 -1.25,1.163 -1.107,0.996 -0.948,0.812 -0.892,0.582 -0.613,0.582 -0.406,0.582 -0.199,0.645 0,0.589 0.207,0.526 0.318,0.366 0.549,0.43 0.708,0.478 0.82,0.621 0.956,0.701 1.107,0.78 1.345,0.741 1.521,0.756 2.301,0.836 2.882,1.545 3.097,2.237 3.161,2.429 3.201,2.588 3.233,2.787 3.249,2.843 3.264,3.042 3.36,3.018 3.431,3.002 3.423,2.819 3.431,2.755 3.456,2.54 3.511,2.333 3.511,2.11 3.511,1.887 3.487,1.672 3.487,1.449 3.487,1.035 3.408,0.613 3.344,0.199 3.28,-0.254 3.082,-0.661 2.922,-1.083 2.85,-1.29 2.81,-1.489 2.691,-1.672 2.595,-1.823 2.492,-1.99 2.38,-2.134 2.11,-2.452 1.784,-2.627 1.401,-2.747 0.908,-2.906 0.645,-2.532 0.645,-2.078 c 0,0.406 0.127,0.757 0.127,1.171 0,0.199 0.032,0.422 -0.104,0.581 -0.143,0.175 -0.286,0.159 -0.461,0.055 -0.271,-0.175 -0.342,-0.716 -0.319,-1.035 0.024,-0.191 0.024,-0.414 0.08,-0.597 0.056,-0.191 0.127,-0.358 0.207,-0.541 0.072,-0.16 0.231,-0.35 0.096,-0.526 -0.112,-0.159 -0.367,-0.191 -0.542,-0.207 -0.382,-0.039 -0.82,0 -1.162,0.159 -0.183,0.088 -0.303,0.224 -0.462,0.367 -0.144,0.127 -0.287,0.231 -0.406,0.39 -0.223,0.303 -0.335,0.669 -0.486,1.011 -0.071,0.175 -0.151,0.343 -0.223,0.51 -0.079,0.183 -0.286,0.334 -0.286,0.032 0,-0.199 0.055,-0.415 0.135,-0.589 0.064,-0.152 0.159,-0.367 0.088,-0.534 -0.064,-0.167 -0.327,-0.207 -0.486,-0.215 -0.358,0 -0.701,0.088 -0.98,0.318 -0.318,0.263 -0.453,0.653 -0.652,1.004 -0.12,0.199 -0.136,0.398 -0.16,0.637 -0.024,0.247 -0.135,0.438 -0.135,0.692 0,0.231 -0.008,0.446 -0.048,0.661 -0.04,0.191 -0.008,0.406 -0.04,0.597 -0.063,0.414 -0.031,0.828 0.024,1.234 0.056,0.367 0.255,0.709 0.43,1.044 0.096,0.159 0.191,0.31 0.319,0.437 0.111,0.112 0.191,0.255 0.302,0.367 0.231,0.23 0.478,0.47 0.836,0.453 0,-0.016 0,-0.023 -0.007,-0.04 C -3.703,5.223 -4.061,5.032 -4.14,4.953 -4.308,4.801 -4.443,4.626 -4.562,4.435 -4.666,4.276 -4.809,4.029 -4.841,3.854 -4.857,3.75 -4.857,3.655 -4.881,3.559 -4.913,3.376 -4.944,3.153 -4.96,2.962 -4.977,2.843 -4.92,2.755 -4.913,2.644 -4.905,2.548 -4.92,2.437 -4.913,2.333 -4.905,2.126 -4.865,1.919 -4.785,1.728 -4.666,1.401 -4.443,1.139 -4.22,0.884 l 0.143,-0.175 c 0.16,-0.072 0.207,-0.287 0.431,-0.223 0.19,0.048 0.126,0.279 0.087,0.422 -0.048,0.167 -0.12,0.342 -0.151,0.517 -0.024,0.176 -0.008,0.367 -0.04,0.55 -0.056,0.422 0.008,0.836 0.095,1.234 0.04,0.183 0.152,0.326 0.183,0.518 0.04,0.198 0.168,0.366 0.279,0.533 0.183,0.295 0.454,0.541 0.717,0.788 0.032,0.04 0.056,0.072 0.103,0.103 0.04,0.033 0.127,0.033 0.16,0.072 0.047,0.056 -0.009,0.135 -0.04,0.223 -0.064,0.167 -0.112,0.335 -0.096,0.533 0.04,0.789 1.059,1.115 1.577,0.534 0.135,-0.151 0.262,-0.295 0.262,-0.51 0,-0.135 -0.015,-0.262 -0.095,-0.358"
                   style="fill:#010000;fill-opacity:1;fill-rule:nonzero;stroke:none"
                   id="path1435" /></g><g
                 transform="translate(9.9838,12.5257)"
                 id="g1441"><path
                   d="M 0,0 C 0.223,-0.223 0.246,-0.525 0.223,-0.828 0.215,-1.035 0.19,-1.194 0.039,-1.33 c -0.135,-0.111 -0.374,-0.143 -0.517,-0.04 -0.168,0.112 -0.239,0.279 -0.319,0.454 -0.023,0.072 -0.063,0.144 -0.103,0.208 -0.039,0.087 -0.096,0.166 -0.103,0.27 -0.024,0.207 0.071,0.311 0.183,0.47 l 0.023,0.031 C -0.709,0.382 -0.144,0.143 0,0"
                   style="fill:#010000;fill-opacity:1;fill-rule:nonzero;stroke:none"
                   id="path1439" /></g><g
                 transform="translate(7.8896,10.9252)"
                 id="g1445"><path
                   d="M 0,0 -0.016,0.016 C 0.096,0.048 0.223,0.008 0.342,0 0.518,-0.008 0.788,-0.063 0.804,-0.271 0.82,-0.509 0.486,-0.406 0.366,-0.494 0.287,-0.549 0.247,-0.677 0.12,-0.613 0.048,-0.573 0.016,-0.485 -0.04,-0.43 -0.12,-0.358 -0.199,-0.358 -0.287,-0.302 -0.549,-0.119 -0.167,0.008 0,0"
                   style="fill:#010000;fill-opacity:1;fill-rule:nonzero;stroke:none"
                   id="path1443" /></g><g
                 transform="translate(7.0614,13.0511)"
                 id="g1449"><path
                   d="M 0,0 C 0.565,0.127 0.82,-0.565 0.542,-0.956 0.454,-1.091 0.342,-1.202 0.239,-1.322 0.111,-1.465 0.008,-1.561 -0.183,-1.577 c -0.199,-0.015 -0.374,0.08 -0.446,0.247 -0.064,0.136 -0.056,0.287 -0.056,0.438 0,0.176 0.04,0.247 0.112,0.391 0.064,0.119 0.135,0.214 0.247,0.294 0.087,0.064 0.215,0.175 0.318,0.207 z"
                   style="fill:#010000;fill-opacity:1;fill-rule:nonzero;stroke:none"
                   id="path1447" /></g></g></g></g></g></g></g></svg>
