<svg id="Livello_1" data-name="Livello 1" xmlns="http://www.w3.org/2000/svg" xmlns:xlink="http://www.w3.org/1999/xlink" viewBox="0 0 19.64 23.61"><defs><style>.cls-1{fill:none;}.cls-2{clip-path:url(#clip-path);}.cls-3{fill:#fdea18;}.cls-4{fill:#063;}.cls-5{fill:#e84e1b;}.cls-6{fill:#634e42;}.cls-7{fill:#941b80;}.cls-8{fill:#f8b133;}</style><clipPath id="clip-path"><rect class="cls-1" width="19.66" height="23.61"/></clipPath></defs><title>simbolo-goccia-arancio-parco-letterario-5</title><g id="svg547"><g id="g555"><g id="g557"><g class="cls-2"><g id="g559"><g id="g565"><path id="path567" class="cls-3" d="M15.66,3a6,6,0,0,1,1.56,4.18c0,4.77-4.48,10.64-7.39,15.76C6,16.18-.59,8.14,4,3A8.45,8.45,0,0,1,15.66,3"/></g></g></g></g></g></g><g id="simboli_vari" data-name="simboli vari"><g id="Nuovo_simbolo_87" data-name="Nuovo simbolo 87"><g id="ALTRE_OASI" data-name="ALTRE OASI"><path class="cls-3" d="M17.08,8A7.23,7.23,0,1,1,9.85.73,7.24,7.24,0,0,1,17.08,8Z"/></g><path class="cls-4" d="M9.65,6.35h0V6.8c0,.15,0,.14.11.13s.09-.06.09-.13V5.94c0-.07,0-.11.09-.13a1.52,1.52,0,0,0,1-.58,2.23,2.23,0,0,0,.34-2.31A6.67,6.67,0,0,0,9.82.78c-.07-.07-.1,0-.15,0a8.11,8.11,0,0,0-1.19,1.6,2.66,2.66,0,0,0-.34,2A1.81,1.81,0,0,0,9.55,5.81c.07,0,.1.05.1.12Z"/><path class="cls-5" d="M8.22,7.66h0l.43.14c.06,0,.14,0,.16-.07s0-.1-.1-.12H8.62l-.73-.24c-.06,0-.1,0-.09-.12A1.66,1.66,0,0,0,7.56,6.1a2.23,2.23,0,0,0-2.1-1A6.58,6.58,0,0,0,3,5.77c-.09,0-.07.08,0,.15A7.67,7.67,0,0,0,4.09,7.54a2.62,2.62,0,0,0,1.78.94,1.83,1.83,0,0,0,1.81-.9.11.11,0,0,1,.15,0Z"/><path class="cls-6" d="M9,9.38H9L9.28,9c0-.06.06-.13,0-.17s-.11,0-.15.05L9.06,9l-.45.62c0,.05-.07.08-.14.05a1.55,1.55,0,0,0-1.14-.11A2.21,2.21,0,0,0,5.7,11.2a6.24,6.24,0,0,0-.09,2.58c0,.09,0,.09.13.08a8.45,8.45,0,0,0,1.89-.59,2.68,2.68,0,0,0,1.44-1.41,1.84,1.84,0,0,0-.29-2,.1.1,0,0,1,0-.14h0Z"/><path class="cls-7" d="M11,9.18h0c-.09-.12-.17-.25-.27-.37s-.1-.09-.16,0,0,.11,0,.16l.06.08.45.62s.06.09,0,.15a1.6,1.6,0,0,0-.46,1,2.22,2.22,0,0,0,1.09,2.07,6.53,6.53,0,0,0,2.42.88c.09,0,.11,0,.12-.1a8.36,8.36,0,0,0,0-2,2.67,2.67,0,0,0-.89-1.81,1.84,1.84,0,0,0-2-.33.11.11,0,0,1-.15-.05h0Z"/><path class="cls-8" d="M11.27,7.3h0l-.43.14a.1.1,0,0,0-.09.14c0,.07.09.07.15,0H11l.73-.24a.1.1,0,0,1,.14,0,1.58,1.58,0,0,0,.85.76A2.24,2.24,0,0,0,15,7.77a6.86,6.86,0,0,0,1.59-2c0-.08,0-.11-.06-.14A7.63,7.63,0,0,0,14.68,5a2.59,2.59,0,0,0-2,.28A1.83,1.83,0,0,0,11.75,7c0,.08,0,.11-.09.13Z"/></g></g></svg>