<svg xmlns="http://www.w3.org/2000/svg" xmlns:xlink="http://www.w3.org/1999/xlink" viewBox="0 0 19.66 23.61"><defs><style>.cls-1{fill:none;}.cls-2{clip-path:url(#clip-path);}.cls-3{fill:#009245;}</style><clipPath id="clip-path"><rect class="cls-1" width="19.66" height="23.61"/></clipPath></defs><title>simbolo-goccia-planetario</title><g id="svg1455"><g id="g1463"><g id="g1465"><g class="cls-2"><g id="g1467"><g id="g1473"><path id="path1475" class="cls-3" d="M15.66,3a6,6,0,0,1,1.56,4.18c0,4.77-4.48,10.64-7.39,15.76C6,16.18-.59,8.14,4,3A8.45,8.45,0,0,1,15.66,3"/></g></g></g></g></g></g><g id="strade"><g id="Nuovo_simbolo_4" data-name="Nuovo simbolo 4"><path d="M13.92,7A4.3,4.3,0,0,0,7.25,4.09c-1.32-.27-3.52-.51-4.06.72s1.14,2.7,2.24,3.48a4.31,4.31,0,0,0,6.68,2.93c4.63.95,5.58-1.51,1.81-4.2ZM9,9.27C4.7,7.4,1.57,4.1,6.43,4.83a3.92,3.92,0,0,0-.89,1.61A14.27,14.27,0,0,0,9.22,8.67a14.68,14.68,0,0,0,4.13,1.2,4.23,4.23,0,0,0,.59-1.74c3.85,3.13-.85,3-5,1.14Zm0,0"/></g></g></svg>