<svg id="svg259" xmlns="http://www.w3.org/2000/svg" xmlns:xlink="http://www.w3.org/1999/xlink" viewBox="0 0 19.7 23.6"><defs><style>.cls-1{fill:none;}.cls-2{clip-path:url(#clip-path);}.cls-3{fill:#fbb03b;}.cls-4{fill:#662d91;}</style><clipPath id="clip-path"><rect class="cls-1" x="-3.33" y="-3.85" width="26.27" height="31.47"/></clipPath></defs><title>simbolo-chiesa-arancio-pasqua-2023</title><g id="g267"><g id="g269"><g class="cls-2"><g id="g271"><g id="g277"><path id="path279" class="cls-3" d="M15.66,3a6.24,6.24,0,0,1,1.6,4.13c0,4.8-4.54,10.67-7.34,15.74C5.92,16.2-.61,8.2,4.06,3a8.46,8.46,0,0,1,11.6,0"/></g><g id="g281"><path id="path283" class="cls-4" d="M14.38,10.77v2.54H13.31V10.24Z"/></g><g id="g285"><path id="path287" class="cls-4" d="M8.87,6.46a.94.94,0,1,1,.94.93.91.91,0,0,1-.94-.93M9.81,7a.48.48,0,0,0,.53-.53.48.48,0,0,0-.53-.53.57.57,0,0,0-.54.53A.57.57,0,0,0,9.81,7"/></g><g id="g289"><path id="path291" class="cls-4" d="M9.85,5.48a.91.91,0,0,0-.93.94,1,1,0,0,0,.93,1.06.91.91,0,0,0,.94-.93,1,1,0,0,0-.94-1.07m0,5.07c-.53,0-.93.27-.93.67v2h-2V9l1.33-.67a.13.13,0,0,0,.14-.13V5.88L9.85,4l1.47,1.86V8.15c0,.13,0,.13.13.27l1.34.66v4.27h-2v-2a.89.89,0,0,0-.94-.8"/></g><g id="g293"><path id="path295" class="cls-4" d="M6.43,10.26v3.07H5.37V10.79Z"/></g><g id="g297"><path id="path299" class="cls-4" d="M5.32,13.33H6.39V10.26l-1.07.53Zm-.26-2.94,1.46-.66V8.79c0-.13,0-.13.14-.13L8,8V5.59l1.6-2V2.26h-.4A.29.29,0,0,1,8.92,2a.29.29,0,0,1,.27-.26h.4V1.19a.27.27,0,0,1,.53,0v.54h.4a.28.28,0,0,1,.27.26.28.28,0,0,1-.27.27h-.4V3.59l1.6,2V8l1.34.67a.28.28,0,0,1,.26.27v.8l1.34.66c.13,0,.13.14.13.27v2.67h0a.27.27,0,1,1,0,.53H5.06a.28.28,0,0,1-.27-.27c-.13-.13,0-.26.13-.26h0V10.66c0-.13,0-.13.14-.27m3.86.94c0-.4.4-.67.94-.67s.93.27.93.67v2h2V9.06l-1.33-.67c-.14,0-.14-.13-.14-.26V5.86L9.86,4,8.39,5.86V8.13c0,.13,0,.13-.13.26l-1.34.67v4.27h2Zm1.47,0c0-.14-.27-.27-.53-.27s-.54.13-.54.27v2h1.07Zm4,2V10.79l-1.07-.53v3.07Z"/></g></g></g></g></g></svg>