<?xml version="1.0" encoding="UTF-8" standalone="no"?>
<svg
   xmlns:dc="http://purl.org/dc/elements/1.1/"
   xmlns:cc="http://creativecommons.org/ns#"
   xmlns:rdf="http://www.w3.org/1999/02/22-rdf-syntax-ns#"
   xmlns:svg="http://www.w3.org/2000/svg"
   xmlns="http://www.w3.org/2000/svg"
   version="1.1"
   id="svg433"
   xml:space="preserve"
   width="19.656"
   height="23.614401"
   viewBox="0 0 19.656 23.614401"><metadata
     id="metadata439"><rdf:RDF><cc:Work
         rdf:about=""><dc:format>image/svg+xml</dc:format><dc:type
           rdf:resource="http://purl.org/dc/dcmitype/StillImage" /><dc:title></dc:title></cc:Work></rdf:RDF></metadata><defs
     id="defs437"><clipPath
       clipPathUnits="userSpaceOnUse"
       id="clipPath449"><path
         d="M 0,17.711 H 14.742 V 0 H 0 Z"
         id="path447" /></clipPath></defs><g
     id="g441"
     transform="matrix(1.3333333,0,0,-1.3333333,0,23.6144)"><g
       id="g443"><g
         id="g445"
         clip-path="url(#clipPath449)"><g
           id="g451"
           transform="translate(11.7426,15.4608)"><path
             d="m 0,0 c 0.836,-0.932 1.175,-1.99 1.175,-3.133 0,-3.578 -3.366,-7.982 -5.547,-11.825 C -7.251,-9.887 -12.184,-3.853 -8.744,0 -6.298,2.329 -2.445,2.329 0,0"
             style="fill:#fbb03b;fill-opacity:1;fill-rule:nonzero;stroke:none"
             id="path453" /></g><g
           id="g455"
           transform="translate(11.3549,9.3548)"><path
             d="m 0,0 h -7.968 c -0.148,0 -0.268,-0.139 -0.268,-0.311 0,-0.17 0.12,-0.31 0.268,-0.31 H 0 c 0.148,0 0.269,0.14 0.269,0.31 C 0.269,-0.139 0.148,0 0,0"
             style="fill:#a01a59;fill-opacity:1;fill-rule:nonzero;stroke:none"
             id="path457" /></g><g
           id="g459"
           transform="translate(4.06,13.4525)"><path
             d="m 0,0 v -3.082 h -0.171 c -0.146,0 -0.264,-0.136 -0.264,-0.304 v -0.199 h 7.492 v 0.199 c 0,0.168 -0.119,0.304 -0.264,0.304 H 6.622 V 0 H 5.224 V -3.082 H 4.01 V 0 H 2.612 V -3.082 H 1.398 l 0,3.082 z"
             style="fill:#a01a59;fill-opacity:1;fill-rule:nonzero;stroke:none"
             id="path461" /></g><g
           id="g463"
           transform="translate(3.6518,13.9642)"><path
             d="m 0,0 h 7.438 0.001 c 0.146,0 0.264,0.137 0.264,0.305 0,0.124 -0.063,0.23 -0.154,0.278 L 3.84,2.8 C 3.765,2.845 3.673,2.845 3.598,2.8 L -0.121,0.577 C -0.23,0.512 -0.285,0.37 -0.257,0.234 -0.228,0.097 -0.123,0 0,0"
             style="fill:#a01a59;fill-opacity:1;fill-rule:nonzero;stroke:none"
             id="path465" /></g></g></g></g></svg>
