<?xml version="1.0" encoding="UTF-8" standalone="no"?>
<svg
   xmlns:dc="http://purl.org/dc/elements/1.1/"
   xmlns:cc="http://creativecommons.org/ns#"
   xmlns:rdf="http://www.w3.org/1999/02/22-rdf-syntax-ns#"
   xmlns:svg="http://www.w3.org/2000/svg"
   xmlns="http://www.w3.org/2000/svg"
   version="1.1"
   id="svg301"
   xml:space="preserve"
   width="19.656"
   height="23.614401"
   viewBox="0 0 19.656 23.614401"><metadata
     id="metadata307"><rdf:RDF><cc:Work
         rdf:about=""><dc:format>image/svg+xml</dc:format><dc:type
           rdf:resource="http://purl.org/dc/dcmitype/StillImage" /><dc:title></dc:title></cc:Work></rdf:RDF></metadata><defs
     id="defs305"><clipPath
       clipPathUnits="userSpaceOnUse"
       id="clipPath317"><path
         d="M 0,17.711 H 14.742 V 0 H 0 Z"
         id="path315" /></clipPath></defs><g
     id="g309"
     transform="matrix(1.3333333,0,0,-1.3333333,0,23.6144)"><g
       id="g311"><g
         id="g313"
         clip-path="url(#clipPath317)"><g
           id="g319"
           transform="translate(11.7426,15.4608)"><path
             d="m 0,0 c 0.836,-0.932 1.175,-1.99 1.175,-3.133 0,-3.578 -3.366,-7.982 -5.547,-11.825 C -7.251,-9.887 -12.184,-3.853 -8.744,0 -6.298,2.329 -2.445,2.329 0,0"
             style="fill:#fbb03b;fill-opacity:1;fill-rule:nonzero;stroke:none"
             id="path321" /></g><g
           id="g323"
           transform="translate(4.1044,12.6527)"><path
             d="m 0,0 v 0.595 0.014 c -0.024,0.284 -0.361,0.307 -0.391,0 V 0.595 0 Z m 6.893,0 v 0.595 0.014 c -0.024,0.284 -0.362,0.307 -0.39,0 V 0.595 0 Z M 5.001,0.363 H 5.836 V 1.496 L 6.721,2.341 7.577,1.466 V -4.127 H 4.495 v 1.774 0.151 c -0.155,0.938 -1.813,1.712 -2.464,0 V -2.353 -4.127 H -1.043 V 1.466 L -0.178,2.341 0.666,1.496 V 0.363 h 0.86 z"
             style="fill:#683111;fill-opacity:1;fill-rule:nonzero;stroke:none"
             id="path325" /></g><g
           id="g327"
           transform="translate(6.6889,13.2093)"><path
             d="M 0,0 V 0.595 0.61 c -0.025,0.283 -0.361,0.307 -0.39,0 V 0.595 0 Z M 0.877,0 V 0.595 0.61 C 0.853,0.893 0.516,0.917 0.486,0.61 V 0.595 0 Z m 0.85,0 V 0.595 0.61 c -0.024,0.283 -0.362,0.307 -0.39,0 V 0.595 0 Z m 0.69,1.574 v -1.767 h -3.475 v 1.781 l 1.74,1.576 z"
             style="fill:#683111;fill-opacity:1;fill-rule:nonzero;stroke:none"
             id="path329" /></g></g></g></g></svg>
