<?xml version="1.0" encoding="UTF-8" standalone="no"?>
<svg
   xmlns:dc="http://purl.org/dc/elements/1.1/"
   xmlns:cc="http://creativecommons.org/ns#"
   xmlns:rdf="http://www.w3.org/1999/02/22-rdf-syntax-ns#"
   xmlns:svg="http://www.w3.org/2000/svg"
   xmlns="http://www.w3.org/2000/svg"
   version="1.1"
   id="svg10"
   xml:space="preserve"
   width="19.656"
   height="23.614401"
   viewBox="0 0 19.656 23.614401"><metadata
     id="metadata16"><rdf:RDF><cc:Work
         rdf:about=""><dc:format>image/svg+xml</dc:format><dc:type
           rdf:resource="http://purl.org/dc/dcmitype/StillImage" /><dc:title></dc:title></cc:Work></rdf:RDF></metadata><defs
     id="defs14"><clipPath
       clipPathUnits="userSpaceOnUse"
       id="clipPath26"><path
         d="M 0,17.711 H 14.742 V 0 H 0 Z"
         id="path24" /></clipPath><clipPath
       clipPathUnits="userSpaceOnUse"
       id="clipPath42"><path
         d="M 3.12152,14.3178 H 11.4926 V 6.81966 H 3.12152 Z"
         id="path40" /></clipPath></defs><g
     id="g18"
     transform="matrix(1.3333333,0,0,-1.3333333,0,23.6144)"><g
       id="g20"><g
         id="g22"
         clip-path="url(#clipPath26)"><g
           id="g28"
           transform="translate(11.7426,15.4608)"><path
             d="m 0,0 c 0.836,-0.932 1.175,-1.99 1.175,-3.133 0,-3.578 -3.366,-7.982 -5.547,-11.825 C -7.251,-9.887 -12.184,-3.853 -8.744,0 -6.298,2.329 -2.445,2.329 0,0"
             style="fill:#fbb03b;fill-opacity:1;fill-rule:nonzero;stroke:none"
             id="path30" /></g><g
           id="g32"
           transform="translate(5.12,11.7621)"><path
             d="m 0,0 c -0.102,0 -0.182,-0.082 -0.182,-0.182 v -5.101 c 0,-0.1 0.082,-0.182 0.182,-0.182 0.035,0 0.07,0.011 0.101,0.031 l 1.036,0.691 c 0.05,0.034 0.08,0.089 0.081,0.149 l 0.057,3.317 v 0.003 c 0,0.119 0.367,0.124 0.365,0.002 v -2.917 c 0,-0.101 0.081,-0.182 0.181,-0.182 0.037,0 0.071,0.011 0.101,0.03 l 1.094,0.728 c 0.051,0.034 0.081,0.092 0.081,0.153 v 2.186 c 0,0.121 0.364,0.121 0.364,0 v -1.822 c 0,-0.101 0.082,-0.182 0.182,-0.182 0.028,0 0.056,0.005 0.082,0.019 l 0.729,0.364 c 0.061,0.03 0.1,0.094 0.1,0.163 v 2.55 C 4.554,-0.08 4.472,0 4.371,0 Z M -2.187,2.917 C -2.288,2.917 -2.37,2.835 -2.37,2.735 V 2.37 c 0,-0.048 0.02,-0.096 0.055,-0.13 l 0.729,-0.729 c 0.034,-0.034 0.079,-0.053 0.128,-0.053 h 7.289 c 0.047,0 0.092,0.019 0.127,0.053 L 6.687,2.24 c 0.034,0.034 0.054,0.082 0.054,0.13 v 0.365 c 0,0.1 -0.083,0.182 -0.182,0.182 z m 0.686,-1.824 c -0.711,-0.056 -1.296,-0.679 -1.23,-1.413 0.058,-0.628 0.614,-1.144 1.264,-1.076 0.546,0.059 0.993,0.547 0.921,1.116 -0.06,0.463 -0.481,0.842 -0.97,0.764 -0.378,-0.061 -0.69,-0.417 -0.604,-0.824 0.032,-0.148 0.117,-0.276 0.237,-0.364 0.12,-0.087 0.288,-0.128 0.453,-0.077 0.106,0.035 0.191,0.104 0.25,0.201 0.058,0.1 0.077,0.253 -0.001,0.375 -0.062,0.098 -0.12,0.118 -0.21,0.132 -0.045,0.009 -0.108,0.011 -0.175,-0.033 -0.067,-0.043 -0.102,-0.133 -0.102,-0.197 0,-0.049 0.018,-0.095 0.053,-0.13 -0.018,0.006 -0.037,0.013 -0.055,0.025 -0.045,0.033 -0.083,0.09 -0.093,0.142 -0.04,0.183 0.117,0.361 0.306,0.391 0.267,0.042 0.514,-0.181 0.549,-0.451 0.045,-0.353 -0.246,-0.669 -0.597,-0.707 -0.437,-0.046 -0.823,0.312 -0.863,0.747 -0.047,0.519 0.38,0.975 0.896,1.015 0.005,0 0.009,0.001 0.014,0.001 H 5.831 C 5.833,0.73 5.838,0.729 5.844,0.729 6.36,0.689 6.787,0.233 6.739,-0.286 6.7,-0.721 6.313,-1.079 5.876,-1.033 5.525,-0.995 5.235,-0.679 5.28,-0.326 5.314,-0.056 5.563,0.167 5.829,0.125 6.017,0.095 6.172,-0.083 6.135,-0.266 6.124,-0.318 6.085,-0.375 6.041,-0.408 6.022,-0.42 6.005,-0.427 5.988,-0.433 c 0.033,0.035 0.053,0.081 0.053,0.13 0,0.064 -0.036,0.153 -0.103,0.197 -0.066,0.044 -0.131,0.042 -0.176,0.033 -0.09,-0.014 -0.148,-0.034 -0.21,-0.132 -0.077,-0.122 -0.058,-0.275 0,-0.375 0.057,-0.097 0.143,-0.166 0.25,-0.201 0.164,-0.051 0.331,-0.01 0.452,0.077 0.121,0.088 0.205,0.216 0.238,0.364 C 6.578,0.067 6.264,0.423 5.886,0.484 5.399,0.562 4.976,0.183 4.918,-0.28 4.845,-0.849 5.292,-1.337 5.838,-1.396 6.489,-1.464 7.045,-0.949 7.103,-0.32 7.168,0.414 6.583,1.037 5.874,1.093 5.857,1.095 5.844,1.095 5.831,1.095 H -1.458 C -1.472,1.096 -1.487,1.094 -1.501,1.093"
             style="fill:#ff0000;fill-opacity:1;fill-rule:nonzero;stroke:none"
             id="path34" /></g><g
           id="g36"><g
             id="g38" /><g
             id="g54"><g
               clip-path="url(#clipPath42)"
               id="g52"><g
                 transform="translate(11.4926,14.3177)"
                 id="g46"><path
                   d="m 0,0 v -0.112 l -0.627,-0.619 h -7.125 l -0.619,0.619 V 0 Z"
                   style="fill:#ff0000;fill-opacity:1;fill-rule:nonzero;stroke:none"
                   id="path44" /></g><g
                 transform="translate(9.3139,11.4007)"
                 id="g50"><path
                   d="M 0,0 V -2.253 L -0.365,-2.44 v 1.53 c 0,0.604 -1.097,0.604 -1.097,0 V -3 l -0.724,-0.484 v 2.574 0.007 c 0,0.597 -1.097,0.605 -1.097,-0.007 L -3.335,-4.126 -4.014,-4.581 V 0 Z"
                   style="fill:#ff0000;fill-opacity:1;fill-rule:nonzero;stroke:none"
                   id="path48" /></g></g></g></g></g></g></g></svg>
