<svg id="Livello_1" data-name="Livello 1" xmlns="http://www.w3.org/2000/svg" xmlns:xlink="http://www.w3.org/1999/xlink" viewBox="0 0 19.66 23.61"><defs><style>.cls-1{fill:none;}.cls-2{clip-path:url(#clip-path);}.cls-3{fill:#009245;}</style><clipPath id="clip-path"><rect class="cls-1" width="19.66" height="23.61"/></clipPath></defs><title>simbolo-goccia-arancio-zipline5</title><g id="svg653"><g id="g661"><g id="g663"><g class="cls-2"><g id="g665"><g id="g671"><path id="path673" class="cls-3" d="M15.66,3a6,6,0,0,1,1.56,4.18c0,4.77-4.48,10.64-7.39,15.76C6,16.18-.59,8.14,4,3A8.45,8.45,0,0,1,15.66,3"/></g></g></g></g></g></g><g id="simboli_vari" data-name="simboli vari"><path d="M14.47,13a.69.69,0,0,1-.81.55.72.72,0,0,1-.24-.1c-.48-.33-1-.65-1.44-1a.29.29,0,0,0-.39,0c-.66.4-1.33.78-2,1.16a1.47,1.47,0,0,1-1.87-.26l-1.8-1.8a.85.85,0,0,1-.14-1.19l.14-.14h0c.83-.83.57-.65,1.77-1a.36.36,0,0,0,.21-.13L8.92,8a.55.55,0,0,1,.79-.13.18.18,0,0,1,.07,0,.6.6,0,0,1,0,.85h0L8.63,10a.42.42,0,0,1-.18.11l-.8.27c-.09,0-.13,0,0,.13L9.06,11.9c.07.07.12,0,.18,0,.69-.35,1.39-.68,2.07-1a.83.83,0,0,1,.94.08c.61.45,1.24.87,1.85,1.31A.76.76,0,0,1,14.47,13Z"/><path d="M8.35,5c0-.3,0-.44.2-.52A.35.35,0,0,1,9,4.55c.14.14.14.28,0,.55l.88.17c-.06-.31,0-.46.19-.55a.37.37,0,0,1,.43.09c.13.16.12.31,0,.54a1.72,1.72,0,0,0,.5.11l2.26.42,1.5.26h.1a.24.24,0,0,1,.2.29h0a.23.23,0,0,1-.26.19h0l-1.91-.34-2.29-.42L8.39,5.5,5.08,4.9,3.89,4.69a.26.26,0,0,1-.24-.28v0A.26.26,0,0,1,4,4.19H4l3,.54Z"/><path d="M9.92,14,11,13.32l.57-.33a.14.14,0,0,1,.17,0l2,1.32a.66.66,0,0,1,.2.9h0a.67.67,0,0,1-.91.23l0,0c-.59-.37-1.16-.75-1.74-1.13a1.28,1.28,0,0,0-.6-.22C10.43,14.06,10.19,14,9.92,14Z"/><path d="M4.14,8.56A1.18,1.18,0,0,1,5.26,7.39,1.17,1.17,0,0,1,6.41,8.54,1.16,1.16,0,0,1,5.29,9.69,1.12,1.12,0,0,1,4.14,8.6Z"/><path d="M9.57,7.27a.69.69,0,0,0-.35,0c-.11,0-.17,0-.15-.12a.43.43,0,0,0-.22-.47,1.22,1.22,0,0,1-.42-.81H8.7a.38.38,0,0,1,.35.23.41.41,0,0,0,.52.22.4.4,0,0,0,.22-.22.11.11,0,0,1,.11,0h.17c.26,0,.27.06.14.3a.76.76,0,0,1-.46.38c-.17,0-.2.12-.18.26A.89.89,0,0,1,9.57,7.27Z"/><path d="M9.57,9.79v1.3a.39.39,0,0,1-.32.26c-.14,0-.18-.12-.18-.26v-.65a.33.33,0,0,1,.12-.28Z"/></g></svg>