<svg id="svg135" xmlns="http://www.w3.org/2000/svg" viewBox="0 0 19.66 23.61"><defs><style>.cls-1{fill:#fbb03b;}.cls-2{fill:#fff;}</style></defs><title>simbolo-goccia-arancio-castello-4</title><g id="g147"><g id="g153"><path id="path155" class="cls-1" d="M15.66,3a6,6,0,0,1,1.56,4.18c0,4.77-4.48,10.64-7.39,15.76C6,16.18-.59,8.14,4,3A8.45,8.45,0,0,1,15.66,3"/></g></g><g id="g157"><g id="g159"><g id="g161"><g id="g175"><path id="path177" class="cls-2" d="M13.53,3.2a.46.46,0,0,0-.14-.34A.52.52,0,0,0,13,2.72h-.75a.49.49,0,0,0-.47.49v.58a.28.28,0,0,1-.29.28h-.45a.28.28,0,0,1-.29-.28v-.6a.48.48,0,0,0-.48-.48H9.56a.49.49,0,0,0-.48.48v.6a.28.28,0,0,1-.28.28H8.34a.28.28,0,0,1-.28-.28v-.6a.49.49,0,0,0-.48-.48H6.83a.49.49,0,0,0-.49.48v12h7.21Z"/></g><g id="g191"><path id="path193" d="M11,7.71V9.77H9.16V7.71s0-.62.9-1c.93.39.89,1,.89,1"/></g></g></g></g></svg>