<svg xmlns="http://www.w3.org/2000/svg" viewBox="0 0 19.66 23.61"><defs><style>.cls-1{fill:#ffec00;}.cls-2{fill:#67300f;}</style></defs><title>simbolo-goccia-giallo-sito-archeologico</title><g id="svg653"><g id="g671"><path id="path673" class="cls-1" d="M15.66,3a6,6,0,0,1,1.56,4.18c0,4.77-4.48,10.64-7.39,15.76C6,16.18-.59,8.14,4,3A8.45,8.45,0,0,1,15.66,3"/></g></g><g id="Nuovo_simbolo_46" data-name="Nuovo simbolo 46"><path class="cls-2" d="M4.86,6.58A1.77,1.77,0,0,0,3.22,8.47,1.57,1.57,0,0,0,4.91,9.91,1.36,1.36,0,0,0,6.14,8.42a1.17,1.17,0,0,0-1.3-1A1,1,0,0,0,4,8.5.87.87,0,0,0,4.35,9a.71.71,0,0,0,.61.1.59.59,0,0,0,.33-.27.47.47,0,0,0,0-.5.34.34,0,0,0-.65.13.22.22,0,0,0,.07.17.11.11,0,0,1-.07,0,.36.36,0,0,1-.13-.19.47.47,0,0,1,.41-.52.68.68,0,0,1,.74.6.89.89,0,0,1-.8.95,1.1,1.1,0,0,1-1.16-1A1.29,1.29,0,0,1,4.9,7.07h9.81a1.29,1.29,0,0,1,1.2,1.36,1.1,1.1,0,0,1-1.16,1,.89.89,0,0,1-.8-.95.68.68,0,0,1,.74-.6.47.47,0,0,1,.41.52.36.36,0,0,1-.13.19.11.11,0,0,1-.07,0A.22.22,0,0,0,15,8.45a.35.35,0,0,0-.14-.27.39.39,0,0,0-.51.14.47.47,0,0,0,0,.5.59.59,0,0,0,.33.27.71.71,0,0,0,.61-.1.87.87,0,0,0,.32-.49,1,1,0,0,0-.82-1.11,1.16,1.16,0,0,0-1.29,1A1.36,1.36,0,0,0,14.7,9.91a1.57,1.57,0,0,0,1.69-1.44,1.77,1.77,0,0,0-1.64-1.89H4.86ZM3.94,4.13a.25.25,0,0,0-.24.25v.49A.28.28,0,0,0,3.77,5l1,1a.26.26,0,0,0,.17.07h9.77A.28.28,0,0,0,14.86,6l1-1a.28.28,0,0,0,.07-.17V4.38a.25.25,0,0,0-.24-.25ZM6.88,8a.25.25,0,0,0-.25.25v6.83a.25.25,0,0,0,.25.25.24.24,0,0,0,.13,0L8.4,14.4a.24.24,0,0,0,.11-.2l.07-4.45h0c0-.16.5-.17.49,0v3.91a.25.25,0,0,0,.25.24.22.22,0,0,0,.13,0l1.47-1a.26.26,0,0,0,.11-.2V9.75c0-.16.48-.16.48,0v2.44a.25.25,0,0,0,.25.25.23.23,0,0,0,.11,0l1-.49A.23.23,0,0,0,13,11.7V8.29A.25.25,0,0,0,12.73,8Zm.24.49"/><polygon class="cls-2" points="15.42 4.62 15.42 4.77 14.58 5.6 5.02 5.6 4.19 4.77 4.19 4.62 15.42 4.62"/><path class="cls-2" d="M12.49,8.53v3L12,11.8V9.75c0-.81-1.47-.81-1.47,0v2.8l-1,.65V9.75h0c0-.8-1.47-.81-1.47,0L8,14.06l-.9.61V8.53Z"/></g></svg>