<?xml version="1.0" encoding="UTF-8" standalone="no"?>
<svg
   xmlns:dc="http://purl.org/dc/elements/1.1/"
   xmlns:cc="http://creativecommons.org/ns#"
   xmlns:rdf="http://www.w3.org/1999/02/22-rdf-syntax-ns#"
   xmlns:svg="http://www.w3.org/2000/svg"
   xmlns="http://www.w3.org/2000/svg"
   version="1.1"
   id="svg331"
   xml:space="preserve"
   width="19.656"
   height="23.614401"
   viewBox="0 0 19.656 23.614401"><metadata
     id="metadata337"><rdf:RDF><cc:Work
         rdf:about=""><dc:format>image/svg+xml</dc:format><dc:type
           rdf:resource="http://purl.org/dc/dcmitype/StillImage" /><dc:title></dc:title></cc:Work></rdf:RDF></metadata><defs
     id="defs335"><clipPath
       clipPathUnits="userSpaceOnUse"
       id="clipPath347"><path
         d="M 0,17.711 H 14.742 V 0 H 0 Z"
         id="path345" /></clipPath></defs><g
     id="g339"
     transform="matrix(1.3333333,0,0,-1.3333333,0,23.6144)"><g
       id="g341"><g
         id="g343"
         clip-path="url(#clipPath347)"><g
           id="g349"
           transform="translate(11.7426,15.4608)"><path
             d="m 0,0 c 0.836,-0.932 1.175,-1.99 1.175,-3.133 0,-3.578 -3.366,-7.982 -5.547,-11.825 C -7.251,-9.887 -12.184,-3.853 -8.744,0 -6.298,2.329 -2.445,2.329 0,0"
             style="fill:#fbb03b;fill-opacity:1;fill-rule:nonzero;stroke:none"
             id="path351" /></g><g
           id="g353"
           transform="translate(11.3549,9.2259)"><path
             d="m 0,0 h -7.968 c -0.148,0 -0.268,-0.139 -0.268,-0.311 0,-0.171 0.12,-0.31 0.268,-0.31 H 0 c 0.148,0 0.269,0.139 0.269,0.31 C 0.269,-0.139 0.148,0 0,0"
             style="fill:#67300f;fill-opacity:1;fill-rule:nonzero;stroke:none"
             id="path355" /></g><g
           id="g357"
           transform="translate(4.06,13.3231)"><path
             d="m 0,0 v -3.082 h -0.171 c -0.146,0 -0.264,-0.136 -0.264,-0.304 v -0.198 h 7.492 v 0.198 c 0,0.168 -0.119,0.304 -0.264,0.304 H 6.622 V 0 H 5.224 V -3.082 H 4.01 V 0 H 2.612 V -3.082 H 1.398 l 0,3.082 z"
             style="fill:#67300f;fill-opacity:1;fill-rule:nonzero;stroke:none"
             id="path359" /></g><g
           id="g361"
           transform="translate(3.6518,13.8353)"><path
             d="m 0,0 h 7.438 0.001 c 0.146,0 0.264,0.137 0.264,0.305 0,0.124 -0.063,0.23 -0.154,0.278 L 3.84,2.8 C 3.765,2.845 3.673,2.845 3.598,2.8 L -0.121,0.577 C -0.23,0.512 -0.285,0.37 -0.257,0.234 -0.228,0.096 -0.123,0 0,0"
             style="fill:#67300f;fill-opacity:1;fill-rule:nonzero;stroke:none"
             id="path363" /></g></g></g></g></svg>
