<svg xmlns="http://www.w3.org/2000/svg" xmlns:xlink="http://www.w3.org/1999/xlink" viewBox="0 0 19.66 23.61"><defs><style>.cls-1{fill:none;}.cls-2{clip-path:url(#clip-path);}.cls-3{fill:#009245;}.cls-4{fill:#009ee2;}.cls-4,.cls-5{fill-rule:evenodd;}.cls-5{fill:#fafafa;}</style><clipPath id="clip-path"><rect class="cls-1" width="19.66" height="23.61"/></clipPath></defs><title>simbolo-goccia-cascata5</title><g id="svg1455"><g id="g1463"><g id="g1465"><g class="cls-2"><g id="g1467"><g id="g1473"><path id="path1475" class="cls-3" d="M15.66,3a6,6,0,0,1,1.56,4.18c0,4.77-4.48,10.64-7.39,15.76C6,16.18-.59,8.14,4,3A8.45,8.45,0,0,1,15.66,3"/></g></g></g></g></g></g><g id="strade"><g id="Nuovo_simbolo_79" data-name="Nuovo simbolo 79"><path class="cls-4" d="M14.17,3.15c.34,0,.69,0,1,0s.26,0,.23.23a.56.56,0,0,0,0,.13.69.69,0,0,1-.42.1,6.08,6.08,0,0,0-1.59.2,1.29,1.29,0,0,0-.93.78A10.16,10.16,0,0,0,12,5.82,16.93,16.93,0,0,0,11.41,9c0,.15,0,.2.17.21a6.13,6.13,0,0,1,1.2.27,3.6,3.6,0,0,1,2.65,2v.66a2.73,2.73,0,0,1-.87,1.12,6.94,6.94,0,0,1-2.9,1.1,7.81,7.81,0,0,0-1,.14h-2c0-.05-.06,0-.1,0a8.11,8.11,0,0,1-1.69-.31,3.88,3.88,0,0,1-2.85-2v-.66a2.58,2.58,0,0,1,.54-.88A4.37,4.37,0,0,1,6.76,9.46a.79.79,0,0,0,.72-.8,8.74,8.74,0,0,1,1.73-4c.18-.24.38-.48.58-.72a4.9,4.9,0,0,0-2-.32c-.12,0-.25,0-.32-.13s0-.23.1-.33H8.67s0,.05.08.05A4.22,4.22,0,0,1,10,3.5c.53.21.55.29.17.72A8.82,8.82,0,0,0,8.52,6.74a11.81,11.81,0,0,0-.8,3.61c0,.34,0,.68-.07,1a.21.21,0,0,1-.24.21c-.13,0-.19-.08-.21-.2s0-.08,0-.12-.3.16-.29.33.16.25.3.31a1.23,1.23,0,0,0,.46.1.23.23,0,0,1,.25.26c0,.16-.13.21-.29.2a1.66,1.66,0,0,1-.81-.24.72.72,0,0,1,0-1.26c.13-.09.27-.17.41-.25a.19.19,0,0,0,.07-.26c0-.12-.13,0-.19,0a2.41,2.41,0,0,0-.87.56.71.71,0,0,0,0,1.09,2.61,2.61,0,0,0,1.11.66,7.84,7.84,0,0,0,4.32.2,3.4,3.4,0,0,0,1.76-.86.7.7,0,0,0,0-1.08,3.64,3.64,0,0,0-1.9-.89c-.09,0-.1,0-.11.07s0,.27.2.3a2.7,2.7,0,0,1,.82.3.87.87,0,0,1,.57.76c0,.39-.29.6-.61.76a6.16,6.16,0,0,1-2.5.56c-.16,0-.29,0-.29-.23s.13-.24.29-.24A5.09,5.09,0,0,0,11,12.27a3.22,3.22,0,0,0,1.23-.46c.25-.16.25-.31,0-.49a2.77,2.77,0,0,0-.83-.35c-.11,0-.12,0-.12.11s0,.32,0,.48a.21.21,0,0,1-.22.23.22.22,0,0,1-.24-.2v-.15A23,23,0,0,1,11,8.23a14.61,14.61,0,0,1,.81-3.38,2.12,2.12,0,0,1,1.8-1.58A1.41,1.41,0,0,0,14.17,3.15Zm-7,6.72a.8.8,0,0,0-.47.09,4.16,4.16,0,0,0-1.77,1,1,1,0,0,0,0,1.6,3,3,0,0,0,.88.66A7.87,7.87,0,0,0,8.41,14a10.63,10.63,0,0,0,4.2-.3,4.24,4.24,0,0,0,2-1.09,1,1,0,0,0,0-1.58,4.29,4.29,0,0,0-1.93-1.07h-.12s-.09,0-.12,0a3.05,3.05,0,0,1,1.37.89,1.16,1.16,0,0,1,.09,1.36,2.76,2.76,0,0,1-1.57,1.06,8.33,8.33,0,0,1-4.06.27,5.41,5.41,0,0,1-1.91-.65,1.37,1.37,0,0,1,0-2.58C6.6,10.13,6.87,10,7.16,9.87Z"/><path class="cls-5" d="M14.17,3.15a1.41,1.41,0,0,1-.53.12,2.12,2.12,0,0,0-1.8,1.58A14.61,14.61,0,0,0,11,8.23a23,23,0,0,0-.14,3.21v.15a.22.22,0,0,0,.24.2.21.21,0,0,0,.22-.23c0-.16,0-.32,0-.48s0-.15.12-.11a2.77,2.77,0,0,1,.83.35c.23.18.23.33,0,.49a3.22,3.22,0,0,1-1.23.46,5.09,5.09,0,0,1-1.22.15c-.16,0-.29.06-.29.24s.13.24.29.23a6.16,6.16,0,0,0,2.5-.56c.32-.16.61-.37.61-.76a.87.87,0,0,0-.57-.76,2.7,2.7,0,0,0-.82-.3c-.2,0-.21-.14-.2-.3s0-.09.11-.07a3.64,3.64,0,0,1,1.9.89.7.7,0,0,1,0,1.08,3.4,3.4,0,0,1-1.76.86,7.84,7.84,0,0,1-4.32-.2,2.61,2.61,0,0,1-1.11-.66.71.71,0,0,1,0-1.09A2.41,2.41,0,0,1,7,10.46c.06,0,.15-.13.19,0a.19.19,0,0,1-.07.26c-.14.08-.28.16-.41.25a.72.72,0,0,0,0,1.26,1.66,1.66,0,0,0,.81.24c.16,0,.27,0,.29-.2A.23.23,0,0,0,7.63,12a1.23,1.23,0,0,1-.46-.1c-.14-.06-.3-.14-.3-.31s.14-.26.29-.33,0,.08,0,.12.08.2.21.2a.21.21,0,0,0,.24-.21c0-.34,0-.68.07-1a11.81,11.81,0,0,1,.8-3.61,8.82,8.82,0,0,1,1.66-2.52c.38-.43.36-.51-.17-.72a4.22,4.22,0,0,0-1.26-.3s-.07,0-.08-.05ZM9.58,11.64c0,.17,0,.35.22.36s.26-.16.26-.35c0-.49,0-1,.07-1.48a20,20,0,0,1,.34-2.66A8.53,8.53,0,0,1,12,4c.1-.13.16-.28,0-.39s-.27,0-.37.12a8.09,8.09,0,0,0-1.3,2.61A21.28,21.28,0,0,0,9.58,11.64Zm-1.21-.35v.15c0,.17,0,.34.21.34s.24-.15.24-.32a20.52,20.52,0,0,1,.31-2.92,10.06,10.06,0,0,1,1.26-3.43,8.18,8.18,0,0,1,.74-1c.1-.13.13-.28,0-.38s-.25,0-.35.07l-.11.14A8,8,0,0,0,9.47,5.84,15,15,0,0,0,8.37,11.29Z"/><path class="cls-5" d="M7.16,9.87c-.29.15-.56.26-.81.41a1.37,1.37,0,0,0,0,2.58,5.41,5.41,0,0,0,1.91.65,8.33,8.33,0,0,0,4.06-.27,2.76,2.76,0,0,0,1.57-1.06,1.16,1.16,0,0,0-.09-1.36,3.05,3.05,0,0,0-1.37-.89s.08,0,.12,0h.12A4.29,4.29,0,0,1,14.6,11a1,1,0,0,1,0,1.58,4.24,4.24,0,0,1-2,1.09,10.63,10.63,0,0,1-4.2.3,7.87,7.87,0,0,1-2.62-.73,3,3,0,0,1-.88-.66,1,1,0,0,1,0-1.6,4.16,4.16,0,0,1,1.77-1A.8.8,0,0,1,7.16,9.87Z"/><path class="cls-4" d="M9.58,11.64a21.28,21.28,0,0,1,.7-5.26,8.09,8.09,0,0,1,1.3-2.61c.1-.13.21-.23.37-.12s.11.26,0,.39a8.53,8.53,0,0,0-1.49,3.47,20,20,0,0,0-.34,2.66c0,.5-.07,1-.07,1.48,0,.19-.05.36-.26.35S9.57,11.81,9.58,11.64Z"/><path class="cls-4" d="M8.37,11.29a15,15,0,0,1,1.1-5.45,8,8,0,0,1,1.19-1.91l.11-.14c.1-.11.22-.17.35-.07s.11.25,0,.38a8.18,8.18,0,0,0-.74,1A10.06,10.06,0,0,0,9.13,8.54a20.52,20.52,0,0,0-.31,2.92c0,.17,0,.33-.24.32s-.23-.17-.21-.34Z"/></g></g></svg>