<?xml version="1.0" encoding="UTF-8" standalone="no"?>
<svg
   xmlns:dc="http://purl.org/dc/elements/1.1/"
   xmlns:cc="http://creativecommons.org/ns#"
   xmlns:rdf="http://www.w3.org/1999/02/22-rdf-syntax-ns#"
   xmlns:svg="http://www.w3.org/2000/svg"
   xmlns="http://www.w3.org/2000/svg"
   version="1.1"
   id="svg1253"
   xml:space="preserve"
   width="19.656"
   height="23.614401"
   viewBox="0 0 19.656 23.614401"><metadata
     id="metadata1259"><rdf:RDF><cc:Work
         rdf:about=""><dc:format>image/svg+xml</dc:format><dc:type
           rdf:resource="http://purl.org/dc/dcmitype/StillImage" /><dc:title></dc:title></cc:Work></rdf:RDF></metadata><defs
     id="defs1257"><clipPath
       clipPathUnits="userSpaceOnUse"
       id="clipPath1269"><path
         d="M 0,17.711 H 14.742 V 0 H 0 Z"
         id="path1267" /></clipPath><clipPath
       clipPathUnits="userSpaceOnUse"
       id="clipPath1283"><path
         d="M -7.41553,8.13965 H 7.05099 V -8.19043 H -7.41553 Z"
         id="path1281" /></clipPath><clipPath
       clipPathUnits="userSpaceOnUse"
       id="clipPath1291"><path
         d="M -7.41553,8.13965 H 7.05099 V -8.19043 H -7.41553 Z"
         id="path1289" /></clipPath></defs><g
     id="g1261"
     transform="matrix(1.3333333,0,0,-1.3333333,0,23.6144)"><g
       id="g1263"><g
         id="g1265"
         clip-path="url(#clipPath1269)"><g
           id="g1271"
           transform="translate(11.7426,15.4608)"><path
             d="m 0,0 c 0.836,-0.932 1.175,-1.99 1.175,-3.133 0,-3.578 -3.366,-7.982 -5.547,-11.825 C -7.251,-9.887 -12.184,-3.853 -8.744,0 -6.298,2.329 -2.445,2.329 0,0"
             style="fill:#009245;fill-opacity:1;fill-rule:nonzero;stroke:none"
             id="path1273" /></g><g
           id="g1275"
           transform="matrix(0.5530006,0,0,-0.5530006,7.486321,12.108066)"><g
             id="g1277"><g
               id="g1279"
               clip-path="url(#clipPath1283)"><g
                 id="g1285"><g
                   id="g1287" /><g
                   id="g1303"><g
                     clip-path="url(#clipPath1291)"
                     id="g1301"><g
                       transform="translate(6.2451,6.708)"
                       id="g1295"><path
                         d="M 0,0 C 0,0 0.257,-1.503 0.194,-1.697 0.125,-1.892 -0.07,-3.324 -0.07,-3.324 l -0.584,-1.822 -0.327,-2.793 0.132,-2.282 -2.342,-1.619 -0.522,0.709 -0.584,1.627 -0.389,-0.717 0.062,-1.751 -0.389,-0.459 v 1.105 l -0.646,2.219 -0.264,-1.955 v -1.237 l -0.389,-0.91 -0.912,1.432 -0.326,1.043 -0.257,0.715 -0.195,-3.58 -0.265,0.133 -0.062,2.21 -0.194,0.778 -0.265,0.257 -0.646,-1.424 -0.194,-1.432 -0.39,-0.592 -0.264,1.043 -0.584,1.564 -0.459,1.168 -0.584,0.716 -0.584,1.433 c 0,0 -0.389,2.927 -0.389,3.121 0,0.194 -0.195,2.211 -0.195,2.211 l 0.584,2.934 1.565,0.257 1.035,-0.911 -0.778,-1.37 0.972,-0.194 0.717,1.176 -0.063,1.104 2.211,0.133 1.494,-0.133 1.759,-0.91 1.689,-1.106 0.911,0.195 V 0.318 L -1.3,0.583 -0.327,0.716 Z m 0.778,-2.927 c 0.062,0.195 0,2.016 0,2.21 0,0.196 -0.062,2.149 -0.062,2.149 l -13.925,-0.071 -0.452,-0.388 0.125,-3.838 c 0,0 0.389,-4.818 0.389,-5.013 0,-0.194 0.786,-2.988 0.786,-2.988 l 0.716,-2.405 1.495,-1.308 c 0,0 1.3,-0.319 1.494,-0.319 0.195,0 2.6,0.388 2.865,0.388 0.257,0 2.405,0.39 2.6,0.39 0.194,0 1.432,0.849 1.432,0.849 0,0 1.105,2.078 1.238,2.405 0.132,0.326 0.389,2.537 0.389,2.864 0,0.319 0.389,3.184 0.521,3.511 0.132,0.326 0.327,1.361 0.389,1.564"
                         style="fill:#1d1d1b;fill-opacity:1;fill-rule:nonzero;stroke:none"
                         id="path1293" /></g><g
                       transform="translate(6.4395,5.0107)"
                       id="g1299"><path
                         d="M 0,0 C 0.062,0.194 -0.194,1.697 -0.194,1.697 L -0.521,2.413 -1.494,2.28 -1.175,2.016 V 0.459 L -2.086,0.265 -3.775,1.37 -5.534,2.28 -7.028,2.413 -9.239,2.28 -9.177,1.176 -9.893,0 l -0.973,0.194 0.779,1.37 -1.036,0.912 -1.565,-0.257 -0.583,-2.935 c 0,0 0.194,-2.016 0.194,-2.211 0,-0.194 0.389,-3.121 0.389,-3.121 l 0.584,-1.432 0.584,-0.716 0.459,-1.168 0.584,-1.565 0.265,-1.043 0.389,0.592 0.195,1.433 0.646,1.424 0.264,-0.257 0.195,-0.779 0.062,-2.21 0.265,-0.132 0.195,3.58 0.256,-0.716 0.327,-1.043 0.911,-1.432 0.389,0.91 v 1.238 l 0.265,1.954 0.646,-2.219 v -1.104 l 0.389,0.459 -0.062,1.751 0.389,0.716 0.584,-1.627 0.521,-0.709 2.343,1.62 -0.132,2.281 0.327,2.794 0.583,1.821 c 0,0 0.195,1.433 0.265,1.627"
                         style="fill:#ffdd00;fill-opacity:1;fill-rule:nonzero;stroke:none"
                         id="path1297" /></g></g></g></g><g
                 id="g1305"
                 transform="translate(-0.5381,5.9697)"><path
                   d="m 0,0 c -0.159,-0.358 -0.244,-0.933 -0.387,-1.191 -0.022,-0.044 -0.177,-0.347 -0.297,-0.359 -0.211,-0.021 -0.37,0.441 -0.447,0.596 -0.106,0.212 -0.2,0.39 -0.299,0.596 -0.111,0.238 -0.513,1.142 -0.446,1.371 0.052,0.182 0.417,0.177 0.386,0.357 -0.037,0.003 -0.039,0.04 -0.089,0.031 h -0.506 c -0.17,-0.039 -0.381,-0.037 -0.478,-0.148 0.225,-1.059 0.758,-2.195 1.014,-3.25 0.151,-0.617 -0.218,-1.041 -0.179,-1.609 0.016,-0.212 0.12,-0.358 0.179,-0.596 0.019,-0.002 0.035,-0.005 0.03,-0.031 0.218,-0.387 0.389,-0.822 0.566,-1.252 0.057,-0.061 0.097,-0.142 0.119,-0.239 0.088,-0.121 0.17,-0.248 0.27,-0.357 0.171,-0.088 0.353,0.08 0.505,0 0.109,-0.178 -0.121,-0.216 -0.178,-0.357 -0.181,-0.444 0.036,-0.895 0.477,-0.985 h 0.388 c 0.669,0.116 0.511,1.276 -0.06,1.371 -0.193,-0.011 -0.319,-0.06 -0.359,0.119 0.232,0.268 0.484,0.512 0.447,1.044 -0.049,0.052 -0.049,0.307 0,0.358 0.11,0.935 1.193,0.895 1.731,1.401 0.009,0.139 -0.093,0.166 -0.12,0.268 H 1.969 C 1.838,-2.93 1.686,-2.976 1.581,-3.071 1.258,-3.284 0.767,-3.329 0.359,-3.458 c -0.08,-0.107 -0.096,-0.28 -0.15,-0.417 -0.745,0.802 0.149,1.805 0.359,2.622 l 0.15,0.657 C 0.836,-0.127 0.799,0.382 0.955,0.774 1.062,1.04 1.344,1.104 1.402,1.37 1.203,1.54 0.82,1.524 0.479,1.55 0.301,1.271 0.291,0.823 0.15,0.507 Z"
                   style="fill:#010000;fill-opacity:1;fill-rule:evenodd;stroke:none"
                   id="path1307" /></g></g></g></g></g></g></g></svg>
