<?xml version="1.0" encoding="UTF-8" standalone="no"?>
<svg
   xmlns:dc="http://purl.org/dc/elements/1.1/"
   xmlns:cc="http://creativecommons.org/ns#"
   xmlns:rdf="http://www.w3.org/1999/02/22-rdf-syntax-ns#"
   xmlns:svg="http://www.w3.org/2000/svg"
   xmlns="http://www.w3.org/2000/svg"
   version="1.1"
   id="svg1609"
   xml:space="preserve"
   width="19.656"
   height="23.614401"
   viewBox="0 0 19.656 23.614401"><metadata
     id="metadata1615"><rdf:RDF><cc:Work
         rdf:about=""><dc:format>image/svg+xml</dc:format><dc:type
           rdf:resource="http://purl.org/dc/dcmitype/StillImage" /><dc:title></dc:title></cc:Work></rdf:RDF></metadata><defs
     id="defs1613"><clipPath
       clipPathUnits="userSpaceOnUse"
       id="clipPath1625"><path
         d="M 0,17.711 H 14.742 V 0 H 0 Z"
         id="path1623" /></clipPath><clipPath
       clipPathUnits="userSpaceOnUse"
       id="clipPath1639"><path
         d="M -15.5681,11.2483 H 15.5681 V -11.2478 H -15.5681 Z"
         id="path1637" /></clipPath></defs><g
     id="g1617"
     transform="matrix(1.3333333,0,0,-1.3333333,0,23.6144)"><g
       id="g1619"><g
         id="g1621"
         clip-path="url(#clipPath1625)"><g
           id="g1627"
           transform="translate(11.7426,15.4608)"><path
             d="m 0,0 c 0.836,-0.932 1.175,-1.99 1.175,-3.133 0,-3.578 -3.366,-7.982 -5.547,-11.825 C -7.251,-9.887 -12.184,-3.853 -8.744,0 -6.298,2.329 -2.445,2.329 0,0"
             style="fill:#009245;fill-opacity:1;fill-rule:nonzero;stroke:none"
             id="path1629" /></g><g
           id="g1631"
           transform="matrix(0.3435154,0,0,-0.3435154,7.3924851,12.800563)"><g
             id="g1633"><g
               id="g1635"
               clip-path="url(#clipPath1639)"><g
                 id="g1641"
                 transform="translate(-0.6421,0.2178)"><path
                   d="M 0,0 0.898,6.006 C 0.924,6.172 0.988,6.317 1.08,6.432 L 1.168,6.487 1.504,6.609 1.794,6.61 2.1,6.47 2.271,6.227 2.39,5.919 2.374,5.543 1.832,-0.316 1.743,-0.886 v -4.063 l 1.534,0.761 1.493,1.11 c 0.052,0.038 0.108,0.067 0.165,0.086 l 0.202,0.004 0.199,-0.028 C 5.438,-3.061 5.531,-3.138 5.603,-3.245 5.815,-3.563 5.765,-4.021 5.491,-4.267 L 4.017,-5.593 C 3.999,-5.609 3.978,-5.626 3.957,-5.638 L 3.909,-5.666 1.853,-6.888 C 1.837,-6.896 1.818,-6.905 1.803,-6.915 1.292,-7.226 -1.024,-7.213 -1.5,-6.845 l -0.062,0.035 -2.057,1.222 -0.048,0.028 c -0.021,0.012 -0.041,0.029 -0.06,0.045 l -1.474,1.327 c -0.274,0.246 -0.324,0.703 -0.112,1.021 0.072,0.107 0.165,0.185 0.267,0.229 l 0.199,0.028 0.202,-0.004 C -4.588,-2.933 -4.532,-2.962 -4.48,-3 l 1.493,-1.11 1.534,-0.761 -0.035,0.32 -0.242,4.007 -0.025,0.3 -0.393,5.872 -0.007,0.376 0.128,0.304 0.176,0.238 0.309,0.134 0.29,-0.008 0.333,-0.132 0.086,-0.057 c 0.09,-0.117 0.15,-0.263 0.171,-0.43 L 0.083,0.025"
                   style="fill:#1d1d1b;fill-opacity:1;fill-rule:nonzero;stroke:#1d1d1b;stroke-width:0.283;stroke-linecap:butt;stroke-linejoin:miter;stroke-miterlimit:4;stroke-dasharray:none;stroke-opacity:1"
                   id="path1643" /></g><g
                 id="g1645"
                 transform="translate(-0.6494,-7.1777)"><path
                   d="M 0,0 C 1.007,0.118 1.917,-0.603 2.035,-1.608 2.153,-2.614 1.433,-3.525 0.427,-3.644 -0.58,-3.761 -1.491,-3.04 -1.608,-2.034 -1.726,-1.028 -1.006,-0.117 0,0"
                   style="fill:#1d1d1b;fill-opacity:1;fill-rule:nonzero;stroke:none"
                   id="path1647" /></g><g
                 id="g1649"
                 transform="translate(-0.6494,-7.1777)"><path
                   d="M 0,0 C 1.007,0.118 1.917,-0.603 2.035,-1.608 2.153,-2.614 1.433,-3.525 0.427,-3.644 -0.58,-3.761 -1.491,-3.04 -1.608,-2.034 -1.726,-1.028 -1.006,-0.117 0,0 Z"
                   style="fill:none;stroke:#1d1d1b;stroke-width:0.283;stroke-linecap:butt;stroke-linejoin:miter;stroke-miterlimit:4;stroke-dasharray:none;stroke-opacity:1"
                   id="path1651" /></g><g
                 id="g1653"
                 transform="translate(-1.3848,-11.0352)"><path
                   d="m 0,0 0.042,0.834 0.077,0.154 -0.161,0.596 0.019,0.627 -0.332,1.208 -0.478,0.804 -0.41,1.022 -1.125,1.705 -0.82,0.794 -1.812,1.381 -1.92,0.929 -1.83,0.863 -1.958,0.625 -1.919,0.482 -1.344,0.431"
                   style="fill:none;stroke:#1d1d1b;stroke-width:0.425;stroke-linecap:round;stroke-linejoin:miter;stroke-miterlimit:4;stroke-dasharray:none;stroke-opacity:1"
                   id="path1655" /></g><g
                 id="g1657"
                 transform="translate(0.7402,-10.8682)"><path
                   d="M 0,0 0.159,1.226 0.5,2.417 0.875,3.792 1.362,4.865 2.583,6.542 c 0,0 0.584,0.833 0.709,0.833 0.125,0 1.609,1.124 1.609,1.124 l 1.682,1.043 1.921,0.611 1.74,0.651 2.033,0.503 1.616,0.413 0.722,0.208"
                   style="fill:none;stroke:#1d1d1b;stroke-width:0.425;stroke-linecap:round;stroke-linejoin:miter;stroke-miterlimit:4;stroke-dasharray:none;stroke-opacity:1"
                   id="path1659" /></g><g
                 id="g1661"
                 transform="translate(-3.0347,-4.8955)"><path
                   d="M 0,0 -0.017,1.11 0.025,2.235 0.067,3.444"
                   style="fill:none;stroke:#1d1d1b;stroke-width:0.425;stroke-linecap:round;stroke-linejoin:miter;stroke-miterlimit:4;stroke-dasharray:none;stroke-opacity:1"
                   id="path1663" /></g><g
                 id="g1665"
                 transform="translate(-2.3848,-6.0352)"><path
                   d="M 0,0 0.167,1.875"
                   style="fill:none;stroke:#1d1d1b;stroke-width:0.425;stroke-linecap:round;stroke-linejoin:miter;stroke-miterlimit:4;stroke-dasharray:none;stroke-opacity:1"
                   id="path1667" /></g><g
                 id="g1669"
                 transform="translate(2.1021,-6.0029)"><path
                   d="M 0,0 -0.103,2.018"
                   style="fill:none;stroke:#1d1d1b;stroke-width:0.425;stroke-linecap:round;stroke-linejoin:miter;stroke-miterlimit:4;stroke-dasharray:none;stroke-opacity:1"
                   id="path1671" /></g><g
                 id="g1673"
                 transform="translate(2.9487,-4.8262)"><path
                   d="M 0,0 -0.25,3.25"
                   style="fill:none;stroke:#1d1d1b;stroke-width:0.425;stroke-linecap:round;stroke-linejoin:miter;stroke-miterlimit:4;stroke-dasharray:none;stroke-opacity:1"
                   id="path1675" /></g><g
                 id="g1677"
                 transform="translate(4.6572,-2.9932)"><path
                   d="M 0,0 -0.117,5.157"
                   style="fill:none;stroke:#1d1d1b;stroke-width:0.425;stroke-linecap:round;stroke-linejoin:miter;stroke-miterlimit:4;stroke-dasharray:none;stroke-opacity:1"
                   id="path1679" /></g><g
                 id="g1681"
                 transform="translate(-0.9263,-7.8262)"><path
                   d="m 0,0 -0.458,1.625 -0.792,2.291 -0.875,2.834 -1.708,3.375 -1.792,3.5 -2.042,2.833 -1.375,1.875 -0.542,0.458"
                   style="fill:none;stroke:#1d1d1b;stroke-width:0.567;stroke-linecap:round;stroke-linejoin:miter;stroke-miterlimit:4;stroke-dasharray:none;stroke-opacity:1"
                   id="path1683" /></g><g
                 id="g1685"
                 transform="translate(1.0322,-7.4102)"><path
                   d="m 0,0 0.583,2.542 0.5,1.75 1.292,3.125 1.667,3 3.25,4.458 1.749,2.625"
                   style="fill:none;stroke:#1d1d1b;stroke-width:0.567;stroke-linecap:round;stroke-linejoin:miter;stroke-miterlimit:4;stroke-dasharray:none;stroke-opacity:1"
                   id="path1687" /></g><g
                 id="g1689"
                 transform="translate(-1.1763,-5.3262)"><path
                   d="M 0,0 H 2.25"
                   style="fill:none;stroke:#1d1d1b;stroke-width:0.425;stroke-linecap:round;stroke-linejoin:miter;stroke-miterlimit:4;stroke-dasharray:none;stroke-opacity:1"
                   id="path1691" /></g><g
                 id="g1693"
                 transform="translate(-2.3013,-1.5352)"><path
                   d="M 0,0 4.5,-0.166"
                   style="fill:none;stroke:#1d1d1b;stroke-width:0.425;stroke-linecap:round;stroke-linejoin:miter;stroke-miterlimit:4;stroke-dasharray:none;stroke-opacity:1"
                   id="path1695" /></g><g
                 id="g1697"
                 transform="translate(-1.9263,-2.9932)"><path
                   d="M 0,0 3.542,-0.208"
                   style="fill:none;stroke:#1d1d1b;stroke-width:0.425;stroke-linecap:round;stroke-linejoin:miter;stroke-miterlimit:4;stroke-dasharray:none;stroke-opacity:1"
                   id="path1699" /></g><g
                 id="g1701"
                 transform="translate(-0.8013,-6.6182)"><path
                   d="M 0,0 1.583,-0.042"
                   style="fill:none;stroke:#1d1d1b;stroke-width:0.425;stroke-linecap:round;stroke-linejoin:miter;stroke-miterlimit:4;stroke-dasharray:none;stroke-opacity:1"
                   id="path1703" /></g><g
                 id="g1705"
                 transform="translate(-3.1348,-0.1602)"><path
                   d="M 0,0 5.792,-0.25"
                   style="fill:none;stroke:#1d1d1b;stroke-width:0.425;stroke-linecap:round;stroke-linejoin:miter;stroke-miterlimit:4;stroke-dasharray:none;stroke-opacity:1"
                   id="path1707" /></g><g
                 id="g1709"
                 transform="translate(-4.0098,1.8398)"><path
                   d="M 0,0 7.583,-0.333"
                   style="fill:none;stroke:#1d1d1b;stroke-width:0.425;stroke-linecap:round;stroke-linejoin:miter;stroke-miterlimit:4;stroke-dasharray:none;stroke-opacity:1"
                   id="path1711" /></g><g
                 id="g1713"
                 transform="translate(-5.0098,3.8398)"><path
                   d="M 0,0 9.583,-0.541"
                   style="fill:none;stroke:#1d1d1b;stroke-width:0.425;stroke-linecap:round;stroke-linejoin:miter;stroke-miterlimit:4;stroke-dasharray:none;stroke-opacity:1"
                   id="path1715" /></g><g
                 id="g1717"
                 transform="translate(-6.0513,5.7148)"><path
                   d="M 0,0 11.708,-0.708"
                   style="fill:none;stroke:#1d1d1b;stroke-width:0.425;stroke-linecap:round;stroke-linejoin:miter;stroke-miterlimit:4;stroke-dasharray:none;stroke-opacity:1"
                   id="path1719" /></g><g
                 id="g1721"
                 transform="translate(7.1152,7.0898)"><path
                   d="M 0,0 -14.333,0.625"
                   style="fill:none;stroke:#1d1d1b;stroke-width:0.425;stroke-linecap:round;stroke-linejoin:miter;stroke-miterlimit:4;stroke-dasharray:none;stroke-opacity:1"
                   id="path1723" /></g><g
                 id="g1725"
                 transform="translate(-8.9263,10.2988)"><path
                   d="M 0,0 17.708,-0.792"
                   style="fill:none;stroke:#1d1d1b;stroke-width:0.425;stroke-linecap:round;stroke-linejoin:miter;stroke-miterlimit:4;stroke-dasharray:none;stroke-opacity:1"
                   id="path1727" /></g><g
                 id="g1729"
                 transform="translate(-9.6611,-0.25)"><path
                   d="M 0,0 -0.612,11.018"
                   style="fill:none;stroke:#1d1d1b;stroke-width:0.425;stroke-linecap:round;stroke-linejoin:miter;stroke-miterlimit:4;stroke-dasharray:none;stroke-opacity:1"
                   id="path1731" /></g><g
                 id="g1733"
                 transform="translate(9.2441,-0.7148)"><path
                   d="M 0,0 0.538,10.295"
                   style="fill:none;stroke:#1d1d1b;stroke-width:0.425;stroke-linecap:round;stroke-linejoin:miter;stroke-miterlimit:4;stroke-dasharray:none;stroke-opacity:1"
                   id="path1735" /></g><g
                 id="g1737"
                 transform="translate(-4.7285,-3.1299)"><path
                   d="M 0,0 -0.031,5.429"
                   style="fill:none;stroke:#1d1d1b;stroke-width:0.425;stroke-linecap:round;stroke-linejoin:miter;stroke-miterlimit:4;stroke-dasharray:none;stroke-opacity:1"
                   id="path1739" /></g></g></g></g></g></g></g></svg>
